<?xml version="1.0" encoding="utf-8" standalone="no"?>
<!DOCTYPE svg PUBLIC "-//W3C//DTD SVG 1.1//EN"
  "http://www.w3.org/Graphics/SVG/1.1/DTD/svg11.dtd">
<svg height="360pt" version="1.1" viewBox="0 0 360 360" width="360pt" xmlns="http://www.w3.org/2000/svg" xmlns:xlink="http://www.w3.org/1999/xlink">
 <metadata>
  <rdf:RDF xmlns:cc="http://creativecommons.org/ns#" xmlns:dc="http://purl.org/dc/elements/1.1/" xmlns:rdf="http://www.w3.org/1999/02/22-rdf-syntax-ns#">
   <cc:Work>
    <dc:type rdf:resource="http://purl.org/dc/dcmitype/StillImage"/>
    <dc:date>2024-02-22T23:10:26.238067</dc:date>
    <dc:format>image/svg+xml</dc:format>
    <dc:creator>
     <cc:Agent>
      <dc:title>Matplotlib v3.4.2, https://matplotlib.org/</dc:title>
     </cc:Agent>
    </dc:creator>
   </cc:Work>
  </rdf:RDF>
 </metadata>
 <defs>
  <style type="text/css">*{stroke-linecap:butt;stroke-linejoin:round;}</style>
 </defs>
 <g id="figure_1">
  <g id="patch_1">
   <path d="M 0 360 
L 360 360 
L 360 0 
L 0 0 
z
" style="fill:none;"/>
  </g>
  <g id="axes_1">
   <g id="patch_2">
    <path d="M 48.55 314.2 
L 349.2 314.2 
L 349.2 46.2 
L 48.55 46.2 
z
" style="fill:#ffffff;"/>
   </g>
   <g id="PathCollection_1">
    <defs>
     <path d="M 0 3 
C 0.795609 3 1.55874 2.683901 2.12132 2.12132 
C 2.683901 1.55874 3 0.795609 3 0 
C 3 -0.795609 2.683901 -1.55874 2.12132 -2.12132 
C 1.55874 -2.683901 0.795609 -3 0 -3 
C -0.795609 -3 -1.55874 -2.683901 -2.12132 -2.12132 
C -2.683901 -1.55874 -3 -0.795609 -3 0 
C -3 0.795609 -2.683901 1.55874 -2.12132 2.12132 
C -1.55874 2.683901 -0.795609 3 0 3 
z
" id="me40dce14a6" style="stroke:#1f77b4;stroke-opacity:0;"/>
    </defs>
    <g clip-path="url(#p86b3afa884)">
     <use style="fill:#1f77b4;fill-opacity:0;stroke:#1f77b4;stroke-opacity:0;" x="137.479465" xlink:href="#me40dce14a6" y="232.436245"/>
     <use style="fill:#1f77b4;fill-opacity:0;stroke:#1f77b4;stroke-opacity:0;" x="192.20529" xlink:href="#me40dce14a6" y="232.436245"/>
     <use style="fill:#1f77b4;fill-opacity:0;stroke:#1f77b4;stroke-opacity:0;" x="226.408931" xlink:href="#me40dce14a6" y="143.734532"/>
     <use style="fill:#1f77b4;fill-opacity:0;stroke:#1f77b4;stroke-opacity:0;" x="260.612571" xlink:href="#me40dce14a6" y="185.128665"/>
     <use style="fill:#1f77b4;fill-opacity:0;stroke:#1f77b4;stroke-opacity:0;" x="69.072184" xlink:href="#me40dce14a6" y="232.436245"/>
     <use style="fill:#1f77b4;fill-opacity:0;stroke:#1f77b4;stroke-opacity:0;" x="226.408931" xlink:href="#me40dce14a6" y="120.080742"/>
     <use style="fill:#1f77b4;fill-opacity:0;stroke:#1f77b4;stroke-opacity:0;" x="69.072184" xlink:href="#me40dce14a6" y="267.91693"/>
     <use style="fill:#1f77b4;fill-opacity:0;stroke:#1f77b4;stroke-opacity:0;" x="260.612571" xlink:href="#me40dce14a6" y="232.436245"/>
     <use style="fill:#1f77b4;fill-opacity:0;stroke:#1f77b4;stroke-opacity:0;" x="96.435097" xlink:href="#me40dce14a6" y="285.657273"/>
     <use style="fill:#1f77b4;fill-opacity:0;stroke:#1f77b4;stroke-opacity:0;" x="301.65694" xlink:href="#me40dce14a6" y="60.946267"/>
     <use style="fill:#1f77b4;fill-opacity:0;stroke:#1f77b4;stroke-opacity:0;" x="301.65694" xlink:href="#me40dce14a6" y="108.253847"/>
     <use style="fill:#1f77b4;fill-opacity:0;stroke:#1f77b4;stroke-opacity:0;" x="96.435097" xlink:href="#me40dce14a6" y="267.91693"/>
     <use style="fill:#1f77b4;fill-opacity:0;stroke:#1f77b4;stroke-opacity:0;" x="301.65694" xlink:href="#me40dce14a6" y="90.513504"/>
     <use style="fill:#1f77b4;fill-opacity:0;stroke:#1f77b4;stroke-opacity:0;" x="116.957281" xlink:href="#me40dce14a6" y="202.869007"/>
     <use style="fill:#1f77b4;fill-opacity:0;stroke:#1f77b4;stroke-opacity:0;" x="301.65694" xlink:href="#me40dce14a6" y="90.513504"/>
     <use style="fill:#1f77b4;fill-opacity:0;stroke:#1f77b4;stroke-opacity:0;" x="137.479465" xlink:href="#me40dce14a6" y="161.474875"/>
     <use style="fill:#1f77b4;fill-opacity:0;stroke:#1f77b4;stroke-opacity:0;" x="226.408931" xlink:href="#me40dce14a6" y="131.907637"/>
     <use style="fill:#1f77b4;fill-opacity:0;stroke:#1f77b4;stroke-opacity:0;" x="164.842378" xlink:href="#me40dce14a6" y="297.484168"/>
     <use style="fill:#1f77b4;fill-opacity:0;stroke:#1f77b4;stroke-opacity:0;" x="164.842378" xlink:href="#me40dce14a6" y="161.474875"/>
     <use style="fill:#1f77b4;fill-opacity:0;stroke:#1f77b4;stroke-opacity:0;" x="192.20529" xlink:href="#me40dce14a6" y="185.128665"/>
     <use style="fill:#1f77b4;fill-opacity:0;stroke:#1f77b4;stroke-opacity:0;" x="335.86058" xlink:href="#me40dce14a6" y="72.773162"/>
    </g>
   </g>
   <g id="PolyCollection_1">
    <path clip-path="url(#p86b3afa884)" d="M 69.072184 240.805869 
L 69.072184 302.018182 
L 71.767017 299.600382 
L 74.461849 297.182582 
L 77.156681 294.764783 
L 79.851513 292.389908 
L 82.546346 290.054219 
L 85.241178 288.097466 
L 87.93601 285.927251 
L 90.630843 283.665139 
L 93.325675 281.223846 
L 96.020507 278.792304 
L 98.715339 276.45975 
L 101.410172 274.126965 
L 104.105004 272.003611 
L 106.799836 269.903201 
L 109.494669 267.877354 
L 112.189501 265.819594 
L 114.884333 263.533002 
L 117.579165 261.461869 
L 120.273998 259.636305 
L 122.96883 257.647614 
L 125.663662 255.662276 
L 128.358495 253.657952 
L 131.053327 251.620045 
L 133.748159 249.198906 
L 136.442991 247.309436 
L 139.137824 245.007214 
L 141.832656 242.62586 
L 144.527488 240.244506 
L 147.22232 237.863151 
L 149.917153 235.647452 
L 152.611985 233.570248 
L 155.306817 231.634864 
L 158.00165 229.55628 
L 160.696482 227.247786 
L 163.391314 225.284581 
L 166.086146 223.226999 
L 168.780979 221.447553 
L 171.475811 219.225207 
L 174.170643 217.014698 
L 176.865476 215.451328 
L 179.560308 213.937973 
L 182.25514 212.062828 
L 184.949972 209.452165 
L 187.644805 207.161481 
L 190.339637 205.050303 
L 193.034469 203.597061 
L 195.729302 202.172817 
L 198.424134 199.993576 
L 201.118966 198.557279 
L 203.813798 196.590525 
L 206.508631 194.90848 
L 209.203463 193.081363 
L 211.898295 190.907561 
L 214.593128 188.882143 
L 217.28796 187.24703 
L 219.982792 185.885983 
L 222.677624 184.357969 
L 225.372457 182.828539 
L 228.067289 181.301942 
L 230.762121 179.773929 
L 233.456953 178.245915 
L 236.151786 176.717901 
L 238.846618 175.182163 
L 241.54145 173.645694 
L 244.236283 172.109224 
L 246.931115 170.579941 
L 249.625947 168.931415 
L 252.320779 167.198902 
L 255.015612 165.437443 
L 257.710444 163.539697 
L 260.405276 162.003122 
L 263.100109 160.285422 
L 265.794941 158.867026 
L 268.489773 157.780374 
L 271.184605 156.693721 
L 273.879438 155.119375 
L 276.57427 153.659516 
L 279.269102 152.209923 
L 281.963935 150.435583 
L 284.658767 148.977615 
L 287.353599 147.362153 
L 290.048431 145.672809 
L 292.743264 143.982204 
L 295.438096 142.408451 
L 298.132928 141.089296 
L 300.827761 139.77014 
L 303.522593 138.433529 
L 306.217425 136.908251 
L 308.912257 135.382973 
L 311.60709 133.877897 
L 314.301922 132.52065 
L 316.996754 131.163403 
L 319.691587 129.806157 
L 322.386419 128.44881 
L 325.081251 127.089184 
L 327.776083 125.818252 
L 330.470916 124.663044 
L 333.165748 123.506726 
L 335.86058 122.072262 
L 335.86058 58.381818 
L 335.86058 58.381818 
L 333.165748 60.720992 
L 330.470916 62.858651 
L 327.776083 65.347491 
L 325.081251 67.675781 
L 322.386419 69.984455 
L 319.691587 72.089436 
L 316.996754 74.184826 
L 314.301922 76.344422 
L 311.60709 78.553277 
L 308.912257 80.544806 
L 306.217425 82.56908 
L 303.522593 84.661259 
L 300.827761 86.753438 
L 298.132928 88.845617 
L 295.438096 90.824947 
L 292.743264 92.699327 
L 290.048431 94.681203 
L 287.353599 96.844564 
L 284.658767 98.796048 
L 281.963935 100.73486 
L 279.269102 102.96788 
L 276.57427 105.048446 
L 273.879438 107.030473 
L 271.184605 109.02842 
L 268.489773 111.182411 
L 265.794941 113.276859 
L 263.100109 115.428563 
L 260.405276 117.477248 
L 257.710444 119.433268 
L 255.015612 121.314883 
L 252.320779 123.485163 
L 249.625947 125.768508 
L 246.931115 127.806089 
L 244.236283 129.786332 
L 241.54145 131.709178 
L 238.846618 133.536487 
L 236.151786 135.349398 
L 233.456953 137.313553 
L 230.762121 139.423196 
L 228.067289 141.422708 
L 225.372457 143.396152 
L 222.677624 145.357345 
L 219.982792 147.207886 
L 217.28796 149.058427 
L 214.593128 150.909247 
L 211.898295 152.764076 
L 209.203463 154.61819 
L 206.508631 156.485966 
L 203.813798 158.316975 
L 201.118966 160.171679 
L 198.424134 162.089032 
L 195.729302 163.875837 
L 193.034469 165.723368 
L 190.339637 167.648603 
L 187.644805 169.348385 
L 184.949972 171.206017 
L 182.25514 172.837988 
L 179.560308 174.616058 
L 176.865476 176.73217 
L 174.170643 178.68072 
L 171.475811 180.534496 
L 168.780979 182.388273 
L 166.086146 184.24205 
L 163.391314 185.971329 
L 160.696482 187.45389 
L 158.00165 189.375874 
L 155.306817 191.066589 
L 152.611985 192.838376 
L 149.917153 194.680859 
L 147.22232 196.471363 
L 144.527488 198.212777 
L 141.832656 199.656652 
L 139.137824 201.355961 
L 136.442991 203.15752 
L 133.748159 204.965691 
L 131.053327 206.536511 
L 128.358495 207.859802 
L 125.663662 209.38111 
L 122.96883 211.270335 
L 120.273998 212.909198 
L 117.579165 214.490639 
L 114.884333 216.180568 
L 112.189501 217.665002 
L 109.494669 219.237298 
L 106.799836 220.689471 
L 104.105004 221.965993 
L 101.410172 223.349022 
L 98.715339 224.982791 
L 96.020507 226.341604 
L 93.325675 227.689053 
L 90.630843 229.036628 
L 87.93601 230.532279 
L 85.241178 232.042569 
L 82.546346 233.120147 
L 79.851513 234.447612 
L 77.156681 236.16715 
L 74.461849 237.903 
L 71.767017 239.489966 
L 69.072184 240.805869 
z
" style="fill-opacity:0.15;"/>
   </g>
   <g id="PathCollection_2">
    <defs>
     <path d="M 0 3 
C 0.795609 3 1.55874 2.683901 2.12132 2.12132 
C 2.683901 1.55874 3 0.795609 3 0 
C 3 -0.795609 2.683901 -1.55874 2.12132 -2.12132 
C 1.55874 -2.683901 0.795609 -3 0 -3 
C -0.795609 -3 -1.55874 -2.683901 -2.12132 -2.12132 
C -2.683901 -1.55874 -3 -0.795609 -3 0 
C -3 0.795609 -2.683901 1.55874 -2.12132 2.12132 
C -1.55874 2.683901 -0.795609 3 0 3 
z
" id="m115ca6e876" style="stroke:#808080;"/>
    </defs>
    <g clip-path="url(#p86b3afa884)">
     <use style="fill:#808080;stroke:#808080;" x="137.479465" xlink:href="#m115ca6e876" y="232.436245"/>
     <use style="fill:#808080;stroke:#808080;" x="192.20529" xlink:href="#m115ca6e876" y="232.436245"/>
     <use style="fill:#808080;stroke:#808080;" x="226.408931" xlink:href="#m115ca6e876" y="143.734532"/>
     <use style="fill:#808080;stroke:#808080;" x="260.612571" xlink:href="#m115ca6e876" y="185.128665"/>
     <use style="fill:#808080;stroke:#808080;" x="69.072184" xlink:href="#m115ca6e876" y="232.436245"/>
     <use style="fill:#808080;stroke:#808080;" x="226.408931" xlink:href="#m115ca6e876" y="120.080742"/>
     <use style="fill:#808080;stroke:#808080;" x="69.072184" xlink:href="#m115ca6e876" y="267.91693"/>
     <use style="fill:#808080;stroke:#808080;" x="96.435097" xlink:href="#m115ca6e876" y="285.657273"/>
     <use style="fill:#808080;stroke:#808080;" x="301.65694" xlink:href="#m115ca6e876" y="60.946267"/>
     <use style="fill:#808080;stroke:#808080;" x="301.65694" xlink:href="#m115ca6e876" y="108.253847"/>
     <use style="fill:#808080;stroke:#808080;" x="96.435097" xlink:href="#m115ca6e876" y="267.91693"/>
     <use style="fill:#808080;stroke:#808080;" x="301.65694" xlink:href="#m115ca6e876" y="90.513504"/>
     <use style="fill:#808080;stroke:#808080;" x="116.957281" xlink:href="#m115ca6e876" y="202.869007"/>
     <use style="fill:#808080;stroke:#808080;" x="301.65694" xlink:href="#m115ca6e876" y="90.513504"/>
     <use style="fill:#808080;stroke:#808080;" x="137.479465" xlink:href="#m115ca6e876" y="161.474875"/>
     <use style="fill:#808080;stroke:#808080;" x="226.408931" xlink:href="#m115ca6e876" y="131.907637"/>
     <use style="fill:#808080;stroke:#808080;" x="164.842378" xlink:href="#m115ca6e876" y="161.474875"/>
     <use style="fill:#808080;stroke:#808080;" x="192.20529" xlink:href="#m115ca6e876" y="185.128665"/>
     <use style="fill:#808080;stroke:#808080;" x="335.86058" xlink:href="#m115ca6e876" y="72.773162"/>
    </g>
   </g>
   <g id="PathCollection_3">
    <defs>
     <path d="M 0 3 
C 0.795609 3 1.55874 2.683901 2.12132 2.12132 
C 2.683901 1.55874 3 0.795609 3 0 
C 3 -0.795609 2.683901 -1.55874 2.12132 -2.12132 
C 1.55874 -2.683901 0.795609 -3 0 -3 
C -0.795609 -3 -1.55874 -2.683901 -2.12132 -2.12132 
C -2.683901 -1.55874 -3 -0.795609 -3 0 
C -3 0.795609 -2.683901 1.55874 -2.12132 2.12132 
C -1.55874 2.683901 -0.795609 3 0 3 
z
" id="m04b4bc9c77" style="stroke:#ff0000;"/>
    </defs>
    <g clip-path="url(#p86b3afa884)">
     <use style="fill:#ff0000;stroke:#ff0000;" x="164.842378" xlink:href="#m04b4bc9c77" y="297.484168"/>
     <use style="fill:#ff0000;stroke:#ff0000;" x="260.612571" xlink:href="#m04b4bc9c77" y="232.436245"/>
    </g>
   </g>
   <g id="matplotlib.axis_1">
    <g id="xtick_1">
     <g id="line2d_1">
      <defs>
       <path d="M 0 0 
L 0 3.5 
" id="m2b3d1802f9" style="stroke:#000000;stroke-width:0.8;"/>
      </defs>
      <g>
       <use style="stroke:#000000;stroke-width:0.8;" x="48.55" xlink:href="#m2b3d1802f9" y="314.2"/>
      </g>
     </g>
     <g id="text_1">
      <!-- 0 -->
      <g transform="translate(44.09625 331.837812)scale(0.14 -0.14)">
       <defs>
        <path d="M 2034 4250 
Q 1547 4250 1301 3770 
Q 1056 3291 1056 2328 
Q 1056 1369 1301 889 
Q 1547 409 2034 409 
Q 2525 409 2770 889 
Q 3016 1369 3016 2328 
Q 3016 3291 2770 3770 
Q 2525 4250 2034 4250 
z
M 2034 4750 
Q 2819 4750 3233 4129 
Q 3647 3509 3647 2328 
Q 3647 1150 3233 529 
Q 2819 -91 2034 -91 
Q 1250 -91 836 529 
Q 422 1150 422 2328 
Q 422 3509 836 4129 
Q 1250 4750 2034 4750 
z
" id="DejaVuSans-30" transform="scale(0.015625)"/>
       </defs>
       <use xlink:href="#DejaVuSans-30"/>
      </g>
     </g>
    </g>
    <g id="xtick_2">
     <g id="line2d_2">
      <g>
       <use style="stroke:#000000;stroke-width:0.8;" x="116.957281" xlink:href="#m2b3d1802f9" y="314.2"/>
      </g>
     </g>
     <g id="text_2">
      <!-- 5 -->
      <g transform="translate(112.503531 331.837812)scale(0.14 -0.14)">
       <defs>
        <path d="M 691 4666 
L 3169 4666 
L 3169 4134 
L 1269 4134 
L 1269 2991 
Q 1406 3038 1543 3061 
Q 1681 3084 1819 3084 
Q 2600 3084 3056 2656 
Q 3513 2228 3513 1497 
Q 3513 744 3044 326 
Q 2575 -91 1722 -91 
Q 1428 -91 1123 -41 
Q 819 9 494 109 
L 494 744 
Q 775 591 1075 516 
Q 1375 441 1709 441 
Q 2250 441 2565 725 
Q 2881 1009 2881 1497 
Q 2881 1984 2565 2268 
Q 2250 2553 1709 2553 
Q 1456 2553 1204 2497 
Q 953 2441 691 2322 
L 691 4666 
z
" id="DejaVuSans-35" transform="scale(0.015625)"/>
       </defs>
       <use xlink:href="#DejaVuSans-35"/>
      </g>
     </g>
    </g>
    <g id="xtick_3">
     <g id="line2d_3">
      <g>
       <use style="stroke:#000000;stroke-width:0.8;" x="185.364562" xlink:href="#m2b3d1802f9" y="314.2"/>
      </g>
     </g>
     <g id="text_3">
      <!-- 10 -->
      <g transform="translate(176.457062 331.837812)scale(0.14 -0.14)">
       <defs>
        <path d="M 794 531 
L 1825 531 
L 1825 4091 
L 703 3866 
L 703 4441 
L 1819 4666 
L 2450 4666 
L 2450 531 
L 3481 531 
L 3481 0 
L 794 0 
L 794 531 
z
" id="DejaVuSans-31" transform="scale(0.015625)"/>
       </defs>
       <use xlink:href="#DejaVuSans-31"/>
       <use x="63.623047" xlink:href="#DejaVuSans-30"/>
      </g>
     </g>
    </g>
    <g id="xtick_4">
     <g id="line2d_4">
      <g>
       <use style="stroke:#000000;stroke-width:0.8;" x="253.771843" xlink:href="#m2b3d1802f9" y="314.2"/>
      </g>
     </g>
     <g id="text_4">
      <!-- 15 -->
      <g transform="translate(244.864343 331.837812)scale(0.14 -0.14)">
       <use xlink:href="#DejaVuSans-31"/>
       <use x="63.623047" xlink:href="#DejaVuSans-35"/>
      </g>
     </g>
    </g>
    <g id="xtick_5">
     <g id="line2d_5">
      <g>
       <use style="stroke:#000000;stroke-width:0.8;" x="322.179124" xlink:href="#m2b3d1802f9" y="314.2"/>
      </g>
     </g>
     <g id="text_5">
      <!-- 20 -->
      <g transform="translate(313.271624 331.837812)scale(0.14 -0.14)">
       <defs>
        <path d="M 1228 531 
L 3431 531 
L 3431 0 
L 469 0 
L 469 531 
Q 828 903 1448 1529 
Q 2069 2156 2228 2338 
Q 2531 2678 2651 2914 
Q 2772 3150 2772 3378 
Q 2772 3750 2511 3984 
Q 2250 4219 1831 4219 
Q 1534 4219 1204 4116 
Q 875 4013 500 3803 
L 500 4441 
Q 881 4594 1212 4672 
Q 1544 4750 1819 4750 
Q 2544 4750 2975 4387 
Q 3406 4025 3406 3419 
Q 3406 3131 3298 2873 
Q 3191 2616 2906 2266 
Q 2828 2175 2409 1742 
Q 1991 1309 1228 531 
z
" id="DejaVuSans-32" transform="scale(0.015625)"/>
       </defs>
       <use xlink:href="#DejaVuSans-32"/>
       <use x="63.623047" xlink:href="#DejaVuSans-30"/>
      </g>
     </g>
    </g>
    <g id="text_6">
     <!-- Rank of corporate ownership rate in 2004 -->
     <g transform="translate(52.823281 349.387187)scale(0.14 -0.14)">
      <defs>
       <path d="M 2841 2188 
Q 3044 2119 3236 1894 
Q 3428 1669 3622 1275 
L 4263 0 
L 3584 0 
L 2988 1197 
Q 2756 1666 2539 1819 
Q 2322 1972 1947 1972 
L 1259 1972 
L 1259 0 
L 628 0 
L 628 4666 
L 2053 4666 
Q 2853 4666 3247 4331 
Q 3641 3997 3641 3322 
Q 3641 2881 3436 2590 
Q 3231 2300 2841 2188 
z
M 1259 4147 
L 1259 2491 
L 2053 2491 
Q 2509 2491 2742 2702 
Q 2975 2913 2975 3322 
Q 2975 3731 2742 3939 
Q 2509 4147 2053 4147 
L 1259 4147 
z
" id="DejaVuSans-52" transform="scale(0.015625)"/>
       <path d="M 2194 1759 
Q 1497 1759 1228 1600 
Q 959 1441 959 1056 
Q 959 750 1161 570 
Q 1363 391 1709 391 
Q 2188 391 2477 730 
Q 2766 1069 2766 1631 
L 2766 1759 
L 2194 1759 
z
M 3341 1997 
L 3341 0 
L 2766 0 
L 2766 531 
Q 2569 213 2275 61 
Q 1981 -91 1556 -91 
Q 1019 -91 701 211 
Q 384 513 384 1019 
Q 384 1609 779 1909 
Q 1175 2209 1959 2209 
L 2766 2209 
L 2766 2266 
Q 2766 2663 2505 2880 
Q 2244 3097 1772 3097 
Q 1472 3097 1187 3025 
Q 903 2953 641 2809 
L 641 3341 
Q 956 3463 1253 3523 
Q 1550 3584 1831 3584 
Q 2591 3584 2966 3190 
Q 3341 2797 3341 1997 
z
" id="DejaVuSans-61" transform="scale(0.015625)"/>
       <path d="M 3513 2113 
L 3513 0 
L 2938 0 
L 2938 2094 
Q 2938 2591 2744 2837 
Q 2550 3084 2163 3084 
Q 1697 3084 1428 2787 
Q 1159 2491 1159 1978 
L 1159 0 
L 581 0 
L 581 3500 
L 1159 3500 
L 1159 2956 
Q 1366 3272 1645 3428 
Q 1925 3584 2291 3584 
Q 2894 3584 3203 3211 
Q 3513 2838 3513 2113 
z
" id="DejaVuSans-6e" transform="scale(0.015625)"/>
       <path d="M 581 4863 
L 1159 4863 
L 1159 1991 
L 2875 3500 
L 3609 3500 
L 1753 1863 
L 3688 0 
L 2938 0 
L 1159 1709 
L 1159 0 
L 581 0 
L 581 4863 
z
" id="DejaVuSans-6b" transform="scale(0.015625)"/>
       <path id="DejaVuSans-20" transform="scale(0.015625)"/>
       <path d="M 1959 3097 
Q 1497 3097 1228 2736 
Q 959 2375 959 1747 
Q 959 1119 1226 758 
Q 1494 397 1959 397 
Q 2419 397 2687 759 
Q 2956 1122 2956 1747 
Q 2956 2369 2687 2733 
Q 2419 3097 1959 3097 
z
M 1959 3584 
Q 2709 3584 3137 3096 
Q 3566 2609 3566 1747 
Q 3566 888 3137 398 
Q 2709 -91 1959 -91 
Q 1206 -91 779 398 
Q 353 888 353 1747 
Q 353 2609 779 3096 
Q 1206 3584 1959 3584 
z
" id="DejaVuSans-6f" transform="scale(0.015625)"/>
       <path d="M 2375 4863 
L 2375 4384 
L 1825 4384 
Q 1516 4384 1395 4259 
Q 1275 4134 1275 3809 
L 1275 3500 
L 2222 3500 
L 2222 3053 
L 1275 3053 
L 1275 0 
L 697 0 
L 697 3053 
L 147 3053 
L 147 3500 
L 697 3500 
L 697 3744 
Q 697 4328 969 4595 
Q 1241 4863 1831 4863 
L 2375 4863 
z
" id="DejaVuSans-66" transform="scale(0.015625)"/>
       <path d="M 3122 3366 
L 3122 2828 
Q 2878 2963 2633 3030 
Q 2388 3097 2138 3097 
Q 1578 3097 1268 2742 
Q 959 2388 959 1747 
Q 959 1106 1268 751 
Q 1578 397 2138 397 
Q 2388 397 2633 464 
Q 2878 531 3122 666 
L 3122 134 
Q 2881 22 2623 -34 
Q 2366 -91 2075 -91 
Q 1284 -91 818 406 
Q 353 903 353 1747 
Q 353 2603 823 3093 
Q 1294 3584 2113 3584 
Q 2378 3584 2631 3529 
Q 2884 3475 3122 3366 
z
" id="DejaVuSans-63" transform="scale(0.015625)"/>
       <path d="M 2631 2963 
Q 2534 3019 2420 3045 
Q 2306 3072 2169 3072 
Q 1681 3072 1420 2755 
Q 1159 2438 1159 1844 
L 1159 0 
L 581 0 
L 581 3500 
L 1159 3500 
L 1159 2956 
Q 1341 3275 1631 3429 
Q 1922 3584 2338 3584 
Q 2397 3584 2469 3576 
Q 2541 3569 2628 3553 
L 2631 2963 
z
" id="DejaVuSans-72" transform="scale(0.015625)"/>
       <path d="M 1159 525 
L 1159 -1331 
L 581 -1331 
L 581 3500 
L 1159 3500 
L 1159 2969 
Q 1341 3281 1617 3432 
Q 1894 3584 2278 3584 
Q 2916 3584 3314 3078 
Q 3713 2572 3713 1747 
Q 3713 922 3314 415 
Q 2916 -91 2278 -91 
Q 1894 -91 1617 61 
Q 1341 213 1159 525 
z
M 3116 1747 
Q 3116 2381 2855 2742 
Q 2594 3103 2138 3103 
Q 1681 3103 1420 2742 
Q 1159 2381 1159 1747 
Q 1159 1113 1420 752 
Q 1681 391 2138 391 
Q 2594 391 2855 752 
Q 3116 1113 3116 1747 
z
" id="DejaVuSans-70" transform="scale(0.015625)"/>
       <path d="M 1172 4494 
L 1172 3500 
L 2356 3500 
L 2356 3053 
L 1172 3053 
L 1172 1153 
Q 1172 725 1289 603 
Q 1406 481 1766 481 
L 2356 481 
L 2356 0 
L 1766 0 
Q 1100 0 847 248 
Q 594 497 594 1153 
L 594 3053 
L 172 3053 
L 172 3500 
L 594 3500 
L 594 4494 
L 1172 4494 
z
" id="DejaVuSans-74" transform="scale(0.015625)"/>
       <path d="M 3597 1894 
L 3597 1613 
L 953 1613 
Q 991 1019 1311 708 
Q 1631 397 2203 397 
Q 2534 397 2845 478 
Q 3156 559 3463 722 
L 3463 178 
Q 3153 47 2828 -22 
Q 2503 -91 2169 -91 
Q 1331 -91 842 396 
Q 353 884 353 1716 
Q 353 2575 817 3079 
Q 1281 3584 2069 3584 
Q 2775 3584 3186 3129 
Q 3597 2675 3597 1894 
z
M 3022 2063 
Q 3016 2534 2758 2815 
Q 2500 3097 2075 3097 
Q 1594 3097 1305 2825 
Q 1016 2553 972 2059 
L 3022 2063 
z
" id="DejaVuSans-65" transform="scale(0.015625)"/>
       <path d="M 269 3500 
L 844 3500 
L 1563 769 
L 2278 3500 
L 2956 3500 
L 3675 769 
L 4391 3500 
L 4966 3500 
L 4050 0 
L 3372 0 
L 2619 2869 
L 1863 0 
L 1184 0 
L 269 3500 
z
" id="DejaVuSans-77" transform="scale(0.015625)"/>
       <path d="M 2834 3397 
L 2834 2853 
Q 2591 2978 2328 3040 
Q 2066 3103 1784 3103 
Q 1356 3103 1142 2972 
Q 928 2841 928 2578 
Q 928 2378 1081 2264 
Q 1234 2150 1697 2047 
L 1894 2003 
Q 2506 1872 2764 1633 
Q 3022 1394 3022 966 
Q 3022 478 2636 193 
Q 2250 -91 1575 -91 
Q 1294 -91 989 -36 
Q 684 19 347 128 
L 347 722 
Q 666 556 975 473 
Q 1284 391 1588 391 
Q 1994 391 2212 530 
Q 2431 669 2431 922 
Q 2431 1156 2273 1281 
Q 2116 1406 1581 1522 
L 1381 1569 
Q 847 1681 609 1914 
Q 372 2147 372 2553 
Q 372 3047 722 3315 
Q 1072 3584 1716 3584 
Q 2034 3584 2315 3537 
Q 2597 3491 2834 3397 
z
" id="DejaVuSans-73" transform="scale(0.015625)"/>
       <path d="M 3513 2113 
L 3513 0 
L 2938 0 
L 2938 2094 
Q 2938 2591 2744 2837 
Q 2550 3084 2163 3084 
Q 1697 3084 1428 2787 
Q 1159 2491 1159 1978 
L 1159 0 
L 581 0 
L 581 4863 
L 1159 4863 
L 1159 2956 
Q 1366 3272 1645 3428 
Q 1925 3584 2291 3584 
Q 2894 3584 3203 3211 
Q 3513 2838 3513 2113 
z
" id="DejaVuSans-68" transform="scale(0.015625)"/>
       <path d="M 603 3500 
L 1178 3500 
L 1178 0 
L 603 0 
L 603 3500 
z
M 603 4863 
L 1178 4863 
L 1178 4134 
L 603 4134 
L 603 4863 
z
" id="DejaVuSans-69" transform="scale(0.015625)"/>
       <path d="M 2419 4116 
L 825 1625 
L 2419 1625 
L 2419 4116 
z
M 2253 4666 
L 3047 4666 
L 3047 1625 
L 3713 1625 
L 3713 1100 
L 3047 1100 
L 3047 0 
L 2419 0 
L 2419 1100 
L 313 1100 
L 313 1709 
L 2253 4666 
z
" id="DejaVuSans-34" transform="scale(0.015625)"/>
      </defs>
      <use xlink:href="#DejaVuSans-52"/>
      <use x="67.232422" xlink:href="#DejaVuSans-61"/>
      <use x="128.511719" xlink:href="#DejaVuSans-6e"/>
      <use x="191.890625" xlink:href="#DejaVuSans-6b"/>
      <use x="249.800781" xlink:href="#DejaVuSans-20"/>
      <use x="281.587891" xlink:href="#DejaVuSans-6f"/>
      <use x="342.769531" xlink:href="#DejaVuSans-66"/>
      <use x="377.974609" xlink:href="#DejaVuSans-20"/>
      <use x="409.761719" xlink:href="#DejaVuSans-63"/>
      <use x="464.742188" xlink:href="#DejaVuSans-6f"/>
      <use x="525.923828" xlink:href="#DejaVuSans-72"/>
      <use x="567.037109" xlink:href="#DejaVuSans-70"/>
      <use x="630.513672" xlink:href="#DejaVuSans-6f"/>
      <use x="691.695312" xlink:href="#DejaVuSans-72"/>
      <use x="732.808594" xlink:href="#DejaVuSans-61"/>
      <use x="794.087891" xlink:href="#DejaVuSans-74"/>
      <use x="833.296875" xlink:href="#DejaVuSans-65"/>
      <use x="894.820312" xlink:href="#DejaVuSans-20"/>
      <use x="926.607422" xlink:href="#DejaVuSans-6f"/>
      <use x="987.789062" xlink:href="#DejaVuSans-77"/>
      <use x="1069.576172" xlink:href="#DejaVuSans-6e"/>
      <use x="1132.955078" xlink:href="#DejaVuSans-65"/>
      <use x="1194.478516" xlink:href="#DejaVuSans-72"/>
      <use x="1235.591797" xlink:href="#DejaVuSans-73"/>
      <use x="1287.691406" xlink:href="#DejaVuSans-68"/>
      <use x="1351.070312" xlink:href="#DejaVuSans-69"/>
      <use x="1378.853516" xlink:href="#DejaVuSans-70"/>
      <use x="1442.330078" xlink:href="#DejaVuSans-20"/>
      <use x="1474.117188" xlink:href="#DejaVuSans-72"/>
      <use x="1515.230469" xlink:href="#DejaVuSans-61"/>
      <use x="1576.509766" xlink:href="#DejaVuSans-74"/>
      <use x="1615.71875" xlink:href="#DejaVuSans-65"/>
      <use x="1677.242188" xlink:href="#DejaVuSans-20"/>
      <use x="1709.029297" xlink:href="#DejaVuSans-69"/>
      <use x="1736.8125" xlink:href="#DejaVuSans-6e"/>
      <use x="1800.191406" xlink:href="#DejaVuSans-20"/>
      <use x="1831.978516" xlink:href="#DejaVuSans-32"/>
      <use x="1895.601562" xlink:href="#DejaVuSans-30"/>
      <use x="1959.224609" xlink:href="#DejaVuSans-30"/>
      <use x="2022.847656" xlink:href="#DejaVuSans-34"/>
     </g>
    </g>
   </g>
   <g id="matplotlib.axis_2">
    <g id="ytick_1">
     <g id="line2d_6">
      <defs>
       <path d="M 0 0 
L -3.5 0 
" id="mc562bd0a8c" style="stroke:#000000;stroke-width:0.8;"/>
      </defs>
      <g>
       <use style="stroke:#000000;stroke-width:0.8;" x="48.55" xlink:href="#mc562bd0a8c" y="309.311063"/>
      </g>
     </g>
     <g id="text_7">
      <!-- 0 -->
      <g transform="translate(32.6425 314.629969)scale(0.14 -0.14)">
       <use xlink:href="#DejaVuSans-30"/>
      </g>
     </g>
    </g>
    <g id="ytick_2">
     <g id="line2d_7">
      <g>
       <use style="stroke:#000000;stroke-width:0.8;" x="48.55" xlink:href="#mc562bd0a8c" y="250.176588"/>
      </g>
     </g>
     <g id="text_8">
      <!-- 5 -->
      <g transform="translate(32.6425 255.495494)scale(0.14 -0.14)">
       <use xlink:href="#DejaVuSans-35"/>
      </g>
     </g>
    </g>
    <g id="ytick_3">
     <g id="line2d_8">
      <g>
       <use style="stroke:#000000;stroke-width:0.8;" x="48.55" xlink:href="#mc562bd0a8c" y="191.042112"/>
      </g>
     </g>
     <g id="text_9">
      <!-- 10 -->
      <g transform="translate(23.735 196.361019)scale(0.14 -0.14)">
       <use xlink:href="#DejaVuSans-31"/>
       <use x="63.623047" xlink:href="#DejaVuSans-30"/>
      </g>
     </g>
    </g>
    <g id="ytick_4">
     <g id="line2d_9">
      <g>
       <use style="stroke:#000000;stroke-width:0.8;" x="48.55" xlink:href="#mc562bd0a8c" y="131.907637"/>
      </g>
     </g>
     <g id="text_10">
      <!-- 15 -->
      <g transform="translate(23.735 137.226543)scale(0.14 -0.14)">
       <use xlink:href="#DejaVuSans-31"/>
       <use x="63.623047" xlink:href="#DejaVuSans-35"/>
      </g>
     </g>
    </g>
    <g id="ytick_5">
     <g id="line2d_10">
      <g>
       <use style="stroke:#000000;stroke-width:0.8;" x="48.55" xlink:href="#mc562bd0a8c" y="72.773162"/>
      </g>
     </g>
     <g id="text_11">
      <!-- 20 -->
      <g transform="translate(23.735 78.092068)scale(0.14 -0.14)">
       <use xlink:href="#DejaVuSans-32"/>
       <use x="63.623047" xlink:href="#DejaVuSans-30"/>
      </g>
     </g>
    </g>
    <g id="text_12">
     <!-- Rank of corporate ownership rate in 2024 -->
     <g transform="translate(16.823437 326.251719)rotate(-90)scale(0.14 -0.14)">
      <use xlink:href="#DejaVuSans-52"/>
      <use x="67.232422" xlink:href="#DejaVuSans-61"/>
      <use x="128.511719" xlink:href="#DejaVuSans-6e"/>
      <use x="191.890625" xlink:href="#DejaVuSans-6b"/>
      <use x="249.800781" xlink:href="#DejaVuSans-20"/>
      <use x="281.587891" xlink:href="#DejaVuSans-6f"/>
      <use x="342.769531" xlink:href="#DejaVuSans-66"/>
      <use x="377.974609" xlink:href="#DejaVuSans-20"/>
      <use x="409.761719" xlink:href="#DejaVuSans-63"/>
      <use x="464.742188" xlink:href="#DejaVuSans-6f"/>
      <use x="525.923828" xlink:href="#DejaVuSans-72"/>
      <use x="567.037109" xlink:href="#DejaVuSans-70"/>
      <use x="630.513672" xlink:href="#DejaVuSans-6f"/>
      <use x="691.695312" xlink:href="#DejaVuSans-72"/>
      <use x="732.808594" xlink:href="#DejaVuSans-61"/>
      <use x="794.087891" xlink:href="#DejaVuSans-74"/>
      <use x="833.296875" xlink:href="#DejaVuSans-65"/>
      <use x="894.820312" xlink:href="#DejaVuSans-20"/>
      <use x="926.607422" xlink:href="#DejaVuSans-6f"/>
      <use x="987.789062" xlink:href="#DejaVuSans-77"/>
      <use x="1069.576172" xlink:href="#DejaVuSans-6e"/>
      <use x="1132.955078" xlink:href="#DejaVuSans-65"/>
      <use x="1194.478516" xlink:href="#DejaVuSans-72"/>
      <use x="1235.591797" xlink:href="#DejaVuSans-73"/>
      <use x="1287.691406" xlink:href="#DejaVuSans-68"/>
      <use x="1351.070312" xlink:href="#DejaVuSans-69"/>
      <use x="1378.853516" xlink:href="#DejaVuSans-70"/>
      <use x="1442.330078" xlink:href="#DejaVuSans-20"/>
      <use x="1474.117188" xlink:href="#DejaVuSans-72"/>
      <use x="1515.230469" xlink:href="#DejaVuSans-61"/>
      <use x="1576.509766" xlink:href="#DejaVuSans-74"/>
      <use x="1615.71875" xlink:href="#DejaVuSans-65"/>
      <use x="1677.242188" xlink:href="#DejaVuSans-20"/>
      <use x="1709.029297" xlink:href="#DejaVuSans-69"/>
      <use x="1736.8125" xlink:href="#DejaVuSans-6e"/>
      <use x="1800.191406" xlink:href="#DejaVuSans-20"/>
      <use x="1831.978516" xlink:href="#DejaVuSans-32"/>
      <use x="1895.601562" xlink:href="#DejaVuSans-30"/>
      <use x="1959.224609" xlink:href="#DejaVuSans-32"/>
      <use x="2022.847656" xlink:href="#DejaVuSans-34"/>
     </g>
    </g>
   </g>
   <g id="line2d_11">
    <path clip-path="url(#p86b3afa884)" d="M 69.072184 269.543128 
L 71.767017 267.670301 
L 74.461849 265.797473 
L 77.156681 263.924646 
L 79.851513 262.051818 
L 82.546346 260.178991 
L 85.241178 258.306163 
L 87.93601 256.433336 
L 90.630843 254.560508 
L 93.325675 252.687681 
L 96.020507 250.814853 
L 98.715339 248.942026 
L 101.410172 247.069198 
L 104.105004 245.196371 
L 106.799836 243.323543 
L 109.494669 241.450716 
L 112.189501 239.577888 
L 114.884333 237.705061 
L 117.579165 235.832233 
L 120.273998 233.959406 
L 122.96883 232.086578 
L 125.663662 230.213751 
L 128.358495 228.340923 
L 131.053327 226.468096 
L 133.748159 224.595268 
L 136.442991 222.722441 
L 139.137824 220.849613 
L 141.832656 218.976786 
L 144.527488 217.103958 
L 147.22232 215.231131 
L 149.917153 213.358303 
L 152.611985 211.485476 
L 155.306817 209.612648 
L 158.00165 207.739821 
L 160.696482 205.866993 
L 163.391314 203.994166 
L 166.086146 202.121338 
L 168.780979 200.248511 
L 171.475811 198.375683 
L 174.170643 196.502856 
L 176.865476 194.630028 
L 179.560308 192.757201 
L 182.25514 190.884373 
L 184.949972 189.011546 
L 187.644805 187.138718 
L 190.339637 185.265891 
L 193.034469 183.393063 
L 195.729302 181.520236 
L 198.424134 179.647408 
L 201.118966 177.774581 
L 203.813798 175.901753 
L 206.508631 174.028926 
L 209.203463 172.156098 
L 211.898295 170.283271 
L 214.593128 168.410443 
L 217.28796 166.537616 
L 219.982792 164.664788 
L 222.677624 162.791961 
L 225.372457 160.919133 
L 228.067289 159.046306 
L 230.762121 157.173478 
L 233.456953 155.300651 
L 236.151786 153.427823 
L 238.846618 151.554996 
L 241.54145 149.682168 
L 244.236283 147.809341 
L 246.931115 145.936513 
L 249.625947 144.063686 
L 252.320779 142.190858 
L 255.015612 140.318031 
L 257.710444 138.445203 
L 260.405276 136.572376 
L 263.100109 134.699548 
L 265.794941 132.826721 
L 268.489773 130.953893 
L 271.184605 129.081066 
L 273.879438 127.208238 
L 276.57427 125.335411 
L 279.269102 123.462583 
L 281.963935 121.589756 
L 284.658767 119.716928 
L 287.353599 117.844101 
L 290.048431 115.971273 
L 292.743264 114.098446 
L 295.438096 112.225618 
L 298.132928 110.352791 
L 300.827761 108.479963 
L 303.522593 106.607136 
L 306.217425 104.734308 
L 308.912257 102.861481 
L 311.60709 100.988653 
L 314.301922 99.115826 
L 316.996754 97.242998 
L 319.691587 95.370171 
L 322.386419 93.497343 
L 325.081251 91.624516 
L 327.776083 89.751688 
L 330.470916 87.878861 
L 333.165748 86.006033 
L 335.86058 84.133206 
" style="fill:none;stroke:#000000;stroke-dasharray:8.325,3.6;stroke-dashoffset:0;stroke-width:2.25;"/>
   </g>
   <g id="patch_3">
    <path d="M 48.55 314.2 
L 48.55 46.2 
" style="fill:none;stroke:#000000;stroke-linecap:square;stroke-linejoin:miter;stroke-width:0.8;"/>
   </g>
   <g id="patch_4">
    <path d="M 349.2 314.2 
L 349.2 46.2 
" style="fill:none;stroke:#000000;stroke-linecap:square;stroke-linejoin:miter;stroke-width:0.8;"/>
   </g>
   <g id="patch_5">
    <path d="M 48.55 314.2 
L 349.2 314.2 
" style="fill:none;stroke:#000000;stroke-linecap:square;stroke-linejoin:miter;stroke-width:0.8;"/>
   </g>
   <g id="patch_6">
    <path d="M 48.55 46.2 
L 349.2 46.2 
" style="fill:none;stroke:#000000;stroke-linecap:square;stroke-linejoin:miter;stroke-width:0.8;"/>
   </g>
   <g id="text_13">
    <!-- South Boston Waterfront -->
    <g transform="translate(167.578669 295.118789)scale(0.12 -0.12)">
     <defs>
      <path d="M 3425 4513 
L 3425 3897 
Q 3066 4069 2747 4153 
Q 2428 4238 2131 4238 
Q 1616 4238 1336 4038 
Q 1056 3838 1056 3469 
Q 1056 3159 1242 3001 
Q 1428 2844 1947 2747 
L 2328 2669 
Q 3034 2534 3370 2195 
Q 3706 1856 3706 1288 
Q 3706 609 3251 259 
Q 2797 -91 1919 -91 
Q 1588 -91 1214 -16 
Q 841 59 441 206 
L 441 856 
Q 825 641 1194 531 
Q 1563 422 1919 422 
Q 2459 422 2753 634 
Q 3047 847 3047 1241 
Q 3047 1584 2836 1778 
Q 2625 1972 2144 2069 
L 1759 2144 
Q 1053 2284 737 2584 
Q 422 2884 422 3419 
Q 422 4038 858 4394 
Q 1294 4750 2059 4750 
Q 2388 4750 2728 4690 
Q 3069 4631 3425 4513 
z
" id="DejaVuSans-53" transform="scale(0.015625)"/>
      <path d="M 544 1381 
L 544 3500 
L 1119 3500 
L 1119 1403 
Q 1119 906 1312 657 
Q 1506 409 1894 409 
Q 2359 409 2629 706 
Q 2900 1003 2900 1516 
L 2900 3500 
L 3475 3500 
L 3475 0 
L 2900 0 
L 2900 538 
Q 2691 219 2414 64 
Q 2138 -91 1772 -91 
Q 1169 -91 856 284 
Q 544 659 544 1381 
z
M 1991 3584 
L 1991 3584 
z
" id="DejaVuSans-75" transform="scale(0.015625)"/>
      <path d="M 1259 2228 
L 1259 519 
L 2272 519 
Q 2781 519 3026 730 
Q 3272 941 3272 1375 
Q 3272 1813 3026 2020 
Q 2781 2228 2272 2228 
L 1259 2228 
z
M 1259 4147 
L 1259 2741 
L 2194 2741 
Q 2656 2741 2882 2914 
Q 3109 3088 3109 3444 
Q 3109 3797 2882 3972 
Q 2656 4147 2194 4147 
L 1259 4147 
z
M 628 4666 
L 2241 4666 
Q 2963 4666 3353 4366 
Q 3744 4066 3744 3513 
Q 3744 3084 3544 2831 
Q 3344 2578 2956 2516 
Q 3422 2416 3680 2098 
Q 3938 1781 3938 1306 
Q 3938 681 3513 340 
Q 3088 0 2303 0 
L 628 0 
L 628 4666 
z
" id="DejaVuSans-42" transform="scale(0.015625)"/>
      <path d="M 213 4666 
L 850 4666 
L 1831 722 
L 2809 4666 
L 3519 4666 
L 4500 722 
L 5478 4666 
L 6119 4666 
L 4947 0 
L 4153 0 
L 3169 4050 
L 2175 0 
L 1381 0 
L 213 4666 
z
" id="DejaVuSans-57" transform="scale(0.015625)"/>
     </defs>
     <use xlink:href="#DejaVuSans-53"/>
     <use x="63.476562" xlink:href="#DejaVuSans-6f"/>
     <use x="124.658203" xlink:href="#DejaVuSans-75"/>
     <use x="188.037109" xlink:href="#DejaVuSans-74"/>
     <use x="227.246094" xlink:href="#DejaVuSans-68"/>
     <use x="290.625" xlink:href="#DejaVuSans-20"/>
     <use x="322.412109" xlink:href="#DejaVuSans-42"/>
     <use x="391.015625" xlink:href="#DejaVuSans-6f"/>
     <use x="452.197266" xlink:href="#DejaVuSans-73"/>
     <use x="504.296875" xlink:href="#DejaVuSans-74"/>
     <use x="543.505859" xlink:href="#DejaVuSans-6f"/>
     <use x="604.6875" xlink:href="#DejaVuSans-6e"/>
     <use x="668.066406" xlink:href="#DejaVuSans-20"/>
     <use x="699.853516" xlink:href="#DejaVuSans-57"/>
     <use x="792.355469" xlink:href="#DejaVuSans-61"/>
     <use x="853.634766" xlink:href="#DejaVuSans-74"/>
     <use x="892.84375" xlink:href="#DejaVuSans-65"/>
     <use x="954.367188" xlink:href="#DejaVuSans-72"/>
     <use x="995.480469" xlink:href="#DejaVuSans-66"/>
     <use x="1030.685547" xlink:href="#DejaVuSans-72"/>
     <use x="1069.548828" xlink:href="#DejaVuSans-6f"/>
     <use x="1130.730469" xlink:href="#DejaVuSans-6e"/>
     <use x="1194.109375" xlink:href="#DejaVuSans-74"/>
    </g>
   </g>
   <g id="text_14">
    <!-- East Boston -->
    <g transform="translate(263.348862 230.070866)scale(0.12 -0.12)">
     <defs>
      <path d="M 628 4666 
L 3578 4666 
L 3578 4134 
L 1259 4134 
L 1259 2753 
L 3481 2753 
L 3481 2222 
L 1259 2222 
L 1259 531 
L 3634 531 
L 3634 0 
L 628 0 
L 628 4666 
z
" id="DejaVuSans-45" transform="scale(0.015625)"/>
     </defs>
     <use xlink:href="#DejaVuSans-45"/>
     <use x="63.183594" xlink:href="#DejaVuSans-61"/>
     <use x="124.462891" xlink:href="#DejaVuSans-73"/>
     <use x="176.5625" xlink:href="#DejaVuSans-74"/>
     <use x="215.771484" xlink:href="#DejaVuSans-20"/>
     <use x="247.558594" xlink:href="#DejaVuSans-42"/>
     <use x="316.162109" xlink:href="#DejaVuSans-6f"/>
     <use x="377.34375" xlink:href="#DejaVuSans-73"/>
     <use x="429.443359" xlink:href="#DejaVuSans-74"/>
     <use x="468.652344" xlink:href="#DejaVuSans-6f"/>
     <use x="529.833984" xlink:href="#DejaVuSans-6e"/>
    </g>
   </g>
   <g id="text_15">
    <!-- Ï: 0.8 -->
    <g transform="translate(62.231456 68.923119)scale(0.14 -0.14)">
     <defs>
      <path d="M 863 2875 
Q 1053 3194 1525 3475 
Q 1709 3584 2278 3584 
Q 2916 3584 3314 3078 
Q 3713 2572 3713 1747 
Q 3713 922 3314 415 
Q 2916 -91 2278 -91 
Q 1894 -91 1617 61 
Q 1341 213 1159 525 
L 1159 -1331 
L 581 -1331 
L 581 1716 
Q 581 2438 863 2875 
z
M 3116 1747 
Q 3116 2381 2855 2742 
Q 2594 3103 2138 3103 
Q 1681 3103 1420 2742 
Q 1159 2381 1159 1747 
Q 1159 1113 1420 752 
Q 1681 391 2138 391 
Q 2594 391 2855 752 
Q 3116 1113 3116 1747 
z
" id="DejaVuSans-3c1" transform="scale(0.015625)"/>
      <path d="M 750 794 
L 1409 794 
L 1409 0 
L 750 0 
L 750 794 
z
M 750 3309 
L 1409 3309 
L 1409 2516 
L 750 2516 
L 750 3309 
z
" id="DejaVuSans-3a" transform="scale(0.015625)"/>
      <path d="M 684 794 
L 1344 794 
L 1344 0 
L 684 0 
L 684 794 
z
" id="DejaVuSans-2e" transform="scale(0.015625)"/>
      <path d="M 2034 2216 
Q 1584 2216 1326 1975 
Q 1069 1734 1069 1313 
Q 1069 891 1326 650 
Q 1584 409 2034 409 
Q 2484 409 2743 651 
Q 3003 894 3003 1313 
Q 3003 1734 2745 1975 
Q 2488 2216 2034 2216 
z
M 1403 2484 
Q 997 2584 770 2862 
Q 544 3141 544 3541 
Q 544 4100 942 4425 
Q 1341 4750 2034 4750 
Q 2731 4750 3128 4425 
Q 3525 4100 3525 3541 
Q 3525 3141 3298 2862 
Q 3072 2584 2669 2484 
Q 3125 2378 3379 2068 
Q 3634 1759 3634 1313 
Q 3634 634 3220 271 
Q 2806 -91 2034 -91 
Q 1263 -91 848 271 
Q 434 634 434 1313 
Q 434 1759 690 2068 
Q 947 2378 1403 2484 
z
M 1172 3481 
Q 1172 3119 1398 2916 
Q 1625 2713 2034 2713 
Q 2441 2713 2670 2916 
Q 2900 3119 2900 3481 
Q 2900 3844 2670 4047 
Q 2441 4250 2034 4250 
Q 1625 4250 1398 4047 
Q 1172 3844 1172 3481 
z
" id="DejaVuSans-38" transform="scale(0.015625)"/>
     </defs>
     <use xlink:href="#DejaVuSans-3c1"/>
     <use x="63.476562" xlink:href="#DejaVuSans-3a"/>
     <use x="97.167969" xlink:href="#DejaVuSans-20"/>
     <use x="128.955078" xlink:href="#DejaVuSans-30"/>
     <use x="192.578125" xlink:href="#DejaVuSans-2e"/>
     <use x="224.365234" xlink:href="#DejaVuSans-38"/>
    </g>
    <!-- p-value:  1.2e-05 -->
    <g transform="translate(62.231456 84.600057)scale(0.14 -0.14)">
     <defs>
      <path d="M 313 2009 
L 1997 2009 
L 1997 1497 
L 313 1497 
L 313 2009 
z
" id="DejaVuSans-2d" transform="scale(0.015625)"/>
      <path d="M 191 3500 
L 800 3500 
L 1894 563 
L 2988 3500 
L 3597 3500 
L 2284 0 
L 1503 0 
L 191 3500 
z
" id="DejaVuSans-76" transform="scale(0.015625)"/>
      <path d="M 603 4863 
L 1178 4863 
L 1178 0 
L 603 0 
L 603 4863 
z
" id="DejaVuSans-6c" transform="scale(0.015625)"/>
     </defs>
     <use xlink:href="#DejaVuSans-70"/>
     <use x="63.476562" xlink:href="#DejaVuSans-2d"/>
     <use x="96.935547" xlink:href="#DejaVuSans-76"/>
     <use x="156.115234" xlink:href="#DejaVuSans-61"/>
     <use x="217.394531" xlink:href="#DejaVuSans-6c"/>
     <use x="245.177734" xlink:href="#DejaVuSans-75"/>
     <use x="308.556641" xlink:href="#DejaVuSans-65"/>
     <use x="370.080078" xlink:href="#DejaVuSans-3a"/>
     <use x="403.771484" xlink:href="#DejaVuSans-20"/>
     <use x="435.558594" xlink:href="#DejaVuSans-20"/>
     <use x="467.345703" xlink:href="#DejaVuSans-31"/>
     <use x="530.96875" xlink:href="#DejaVuSans-2e"/>
     <use x="562.755859" xlink:href="#DejaVuSans-32"/>
     <use x="626.378906" xlink:href="#DejaVuSans-65"/>
     <use x="687.902344" xlink:href="#DejaVuSans-2d"/>
     <use x="723.986328" xlink:href="#DejaVuSans-30"/>
     <use x="787.609375" xlink:href="#DejaVuSans-35"/>
    </g>
   </g>
   <g id="text_16">
    <!-- Rank correlation between corporate ownership -->
    <g transform="translate(11.14 22.2835)scale(0.16 -0.16)">
     <defs>
      <path d="M 3116 1747 
Q 3116 2381 2855 2742 
Q 2594 3103 2138 3103 
Q 1681 3103 1420 2742 
Q 1159 2381 1159 1747 
Q 1159 1113 1420 752 
Q 1681 391 2138 391 
Q 2594 391 2855 752 
Q 3116 1113 3116 1747 
z
M 1159 2969 
Q 1341 3281 1617 3432 
Q 1894 3584 2278 3584 
Q 2916 3584 3314 3078 
Q 3713 2572 3713 1747 
Q 3713 922 3314 415 
Q 2916 -91 2278 -91 
Q 1894 -91 1617 61 
Q 1341 213 1159 525 
L 1159 0 
L 581 0 
L 581 4863 
L 1159 4863 
L 1159 2969 
z
" id="DejaVuSans-62" transform="scale(0.015625)"/>
     </defs>
     <use xlink:href="#DejaVuSans-52"/>
     <use x="67.232422" xlink:href="#DejaVuSans-61"/>
     <use x="128.511719" xlink:href="#DejaVuSans-6e"/>
     <use x="191.890625" xlink:href="#DejaVuSans-6b"/>
     <use x="249.800781" xlink:href="#DejaVuSans-20"/>
     <use x="281.587891" xlink:href="#DejaVuSans-63"/>
     <use x="336.568359" xlink:href="#DejaVuSans-6f"/>
     <use x="397.75" xlink:href="#DejaVuSans-72"/>
     <use x="437.113281" xlink:href="#DejaVuSans-72"/>
     <use x="475.976562" xlink:href="#DejaVuSans-65"/>
     <use x="537.5" xlink:href="#DejaVuSans-6c"/>
     <use x="565.283203" xlink:href="#DejaVuSans-61"/>
     <use x="626.5625" xlink:href="#DejaVuSans-74"/>
     <use x="665.771484" xlink:href="#DejaVuSans-69"/>
     <use x="693.554688" xlink:href="#DejaVuSans-6f"/>
     <use x="754.736328" xlink:href="#DejaVuSans-6e"/>
     <use x="818.115234" xlink:href="#DejaVuSans-20"/>
     <use x="849.902344" xlink:href="#DejaVuSans-62"/>
     <use x="913.378906" xlink:href="#DejaVuSans-65"/>
     <use x="974.902344" xlink:href="#DejaVuSans-74"/>
     <use x="1014.111328" xlink:href="#DejaVuSans-77"/>
     <use x="1095.898438" xlink:href="#DejaVuSans-65"/>
     <use x="1157.421875" xlink:href="#DejaVuSans-65"/>
     <use x="1218.945312" xlink:href="#DejaVuSans-6e"/>
     <use x="1282.324219" xlink:href="#DejaVuSans-20"/>
     <use x="1314.111328" xlink:href="#DejaVuSans-63"/>
     <use x="1369.091797" xlink:href="#DejaVuSans-6f"/>
     <use x="1430.273438" xlink:href="#DejaVuSans-72"/>
     <use x="1471.386719" xlink:href="#DejaVuSans-70"/>
     <use x="1534.863281" xlink:href="#DejaVuSans-6f"/>
     <use x="1596.044922" xlink:href="#DejaVuSans-72"/>
     <use x="1637.158203" xlink:href="#DejaVuSans-61"/>
     <use x="1698.4375" xlink:href="#DejaVuSans-74"/>
     <use x="1737.646484" xlink:href="#DejaVuSans-65"/>
     <use x="1799.169922" xlink:href="#DejaVuSans-20"/>
     <use x="1830.957031" xlink:href="#DejaVuSans-6f"/>
     <use x="1892.138672" xlink:href="#DejaVuSans-77"/>
     <use x="1973.925781" xlink:href="#DejaVuSans-6e"/>
     <use x="2037.304688" xlink:href="#DejaVuSans-65"/>
     <use x="2098.828125" xlink:href="#DejaVuSans-72"/>
     <use x="2139.941406" xlink:href="#DejaVuSans-73"/>
     <use x="2192.041016" xlink:href="#DejaVuSans-68"/>
     <use x="2255.419922" xlink:href="#DejaVuSans-69"/>
     <use x="2283.203125" xlink:href="#DejaVuSans-70"/>
    </g>
    <!-- in 2004 and 2024 -->
    <g transform="translate(128.18375 40.2)scale(0.16 -0.16)">
     <defs>
      <path d="M 2906 2969 
L 2906 4863 
L 3481 4863 
L 3481 0 
L 2906 0 
L 2906 525 
Q 2725 213 2448 61 
Q 2172 -91 1784 -91 
Q 1150 -91 751 415 
Q 353 922 353 1747 
Q 353 2572 751 3078 
Q 1150 3584 1784 3584 
Q 2172 3584 2448 3432 
Q 2725 3281 2906 2969 
z
M 947 1747 
Q 947 1113 1208 752 
Q 1469 391 1925 391 
Q 2381 391 2643 752 
Q 2906 1113 2906 1747 
Q 2906 2381 2643 2742 
Q 2381 3103 1925 3103 
Q 1469 3103 1208 2742 
Q 947 2381 947 1747 
z
" id="DejaVuSans-64" transform="scale(0.015625)"/>
     </defs>
     <use xlink:href="#DejaVuSans-69"/>
     <use x="27.783203" xlink:href="#DejaVuSans-6e"/>
     <use x="91.162109" xlink:href="#DejaVuSans-20"/>
     <use x="122.949219" xlink:href="#DejaVuSans-32"/>
     <use x="186.572266" xlink:href="#DejaVuSans-30"/>
     <use x="250.195312" xlink:href="#DejaVuSans-30"/>
     <use x="313.818359" xlink:href="#DejaVuSans-34"/>
     <use x="377.441406" xlink:href="#DejaVuSans-20"/>
     <use x="409.228516" xlink:href="#DejaVuSans-61"/>
     <use x="470.507812" xlink:href="#DejaVuSans-6e"/>
     <use x="533.886719" xlink:href="#DejaVuSans-64"/>
     <use x="597.363281" xlink:href="#DejaVuSans-20"/>
     <use x="629.150391" xlink:href="#DejaVuSans-32"/>
     <use x="692.773438" xlink:href="#DejaVuSans-30"/>
     <use x="756.396484" xlink:href="#DejaVuSans-32"/>
     <use x="820.019531" xlink:href="#DejaVuSans-34"/>
    </g>
   </g>
  </g>
 </g>
 <defs>
  <clipPath id="p86b3afa884">
   <rect height="268" width="300.65" x="48.55" y="46.2"/>
  </clipPath>
 </defs>
</svg>
