<?xml version="1.0" encoding="utf-8" standalone="no"?>
<!DOCTYPE svg PUBLIC "-//W3C//DTD SVG 1.1//EN"
  "http://www.w3.org/Graphics/SVG/1.1/DTD/svg11.dtd">
<svg height="360pt" version="1.1" viewBox="0 0 864 360" width="864pt" xmlns="http://www.w3.org/2000/svg" xmlns:xlink="http://www.w3.org/1999/xlink">
 <metadata>
  <rdf:RDF xmlns:cc="http://creativecommons.org/ns#" xmlns:dc="http://purl.org/dc/elements/1.1/" xmlns:rdf="http://www.w3.org/1999/02/22-rdf-syntax-ns#">
   <cc:Work>
    <dc:type rdf:resource="http://purl.org/dc/dcmitype/StillImage"/>
    <dc:date>2024-02-22T23:10:26.552875</dc:date>
    <dc:format>image/svg+xml</dc:format>
    <dc:creator>
     <cc:Agent>
      <dc:title>Matplotlib v3.4.2, https://matplotlib.org/</dc:title>
     </cc:Agent>
    </dc:creator>
   </cc:Work>
  </rdf:RDF>
 </metadata>
 <defs>
  <style type="text/css">*{stroke-linecap:butt;stroke-linejoin:round;}</style>
 </defs>
 <g id="figure_1">
  <g id="patch_1">
   <path d="M 0 360 
L 864 360 
L 864 0 
L 0 0 
z
" style="fill:none;"/>
  </g>
  <g id="axes_1">
   <g id="patch_2">
    <path d="M 69.325 310.2 
L 399.054855 310.2 
L 399.054855 46.2 
L 69.325 46.2 
z
" style="fill:#ffffff;"/>
   </g>
   <g id="PathCollection_1">
    <defs>
     <path d="M 0 3 
C 0.795609 3 1.55874 2.683901 2.12132 2.12132 
C 2.683901 1.55874 3 0.795609 3 0 
C 3 -0.795609 2.683901 -1.55874 2.12132 -2.12132 
C 1.55874 -2.683901 0.795609 -3 0 -3 
C -0.795609 -3 -1.55874 -2.683901 -2.12132 -2.12132 
C -2.683901 -1.55874 -3 -0.795609 -3 0 
C -3 0.795609 -2.683901 1.55874 -2.12132 2.12132 
C -1.55874 2.683901 -0.795609 3 0 3 
z
" id="m340e30e9da" style="stroke:#1f77b4;stroke-opacity:0;"/>
    </defs>
    <g clip-path="url(#pebd9d760da)">
     <use style="fill:#1f77b4;fill-opacity:0;stroke:#1f77b4;stroke-opacity:0;" x="166.856015" xlink:href="#m340e30e9da" y="214.2"/>
     <use style="fill:#1f77b4;fill-opacity:0;stroke:#1f77b4;stroke-opacity:0;" x="226.875102" xlink:href="#m340e30e9da" y="250.2"/>
     <use style="fill:#1f77b4;fill-opacity:0;stroke:#1f77b4;stroke-opacity:0;" x="264.38703" xlink:href="#m340e30e9da" y="172.2"/>
     <use style="fill:#1f77b4;fill-opacity:0;stroke:#1f77b4;stroke-opacity:0;" x="301.898959" xlink:href="#m340e30e9da" y="250.2"/>
     <use style="fill:#1f77b4;fill-opacity:0;stroke:#1f77b4;stroke-opacity:0;" x="91.832157" xlink:href="#m340e30e9da" y="130.2"/>
     <use style="fill:#1f77b4;fill-opacity:0;stroke:#1f77b4;stroke-opacity:0;" x="264.38703" xlink:href="#m340e30e9da" y="106.2"/>
     <use style="fill:#1f77b4;fill-opacity:0;stroke:#1f77b4;stroke-opacity:0;" x="91.832157" xlink:href="#m340e30e9da" y="202.2"/>
     <use style="fill:#1f77b4;fill-opacity:0;stroke:#1f77b4;stroke-opacity:0;" x="301.898959" xlink:href="#m340e30e9da" y="280.2"/>
     <use style="fill:#1f77b4;fill-opacity:0;stroke:#1f77b4;stroke-opacity:0;" x="121.841701" xlink:href="#m340e30e9da" y="280.2"/>
     <use style="fill:#1f77b4;fill-opacity:0;stroke:#1f77b4;stroke-opacity:0;" x="346.913274" xlink:href="#m340e30e9da" y="58.2"/>
     <use style="fill:#1f77b4;fill-opacity:0;stroke:#1f77b4;stroke-opacity:0;" x="346.913274" xlink:href="#m340e30e9da" y="118.2"/>
     <use style="fill:#1f77b4;fill-opacity:0;stroke:#1f77b4;stroke-opacity:0;" x="121.841701" xlink:href="#m340e30e9da" y="250.2"/>
     <use style="fill:#1f77b4;fill-opacity:0;stroke:#1f77b4;stroke-opacity:0;" x="346.913274" xlink:href="#m340e30e9da" y="82.2"/>
     <use style="fill:#1f77b4;fill-opacity:0;stroke:#1f77b4;stroke-opacity:0;" x="144.348858" xlink:href="#m340e30e9da" y="190.2"/>
     <use style="fill:#1f77b4;fill-opacity:0;stroke:#1f77b4;stroke-opacity:0;" x="346.913274" xlink:href="#m340e30e9da" y="82.2"/>
     <use style="fill:#1f77b4;fill-opacity:0;stroke:#1f77b4;stroke-opacity:0;" x="166.856015" xlink:href="#m340e30e9da" y="148.2"/>
     <use style="fill:#1f77b4;fill-opacity:0;stroke:#1f77b4;stroke-opacity:0;" x="264.38703" xlink:href="#m340e30e9da" y="148.2"/>
     <use style="fill:#1f77b4;fill-opacity:0;stroke:#1f77b4;stroke-opacity:0;" x="196.865558" xlink:href="#m340e30e9da" y="298.2"/>
     <use style="fill:#1f77b4;fill-opacity:0;stroke:#1f77b4;stroke-opacity:0;" x="196.865558" xlink:href="#m340e30e9da" y="172.2"/>
     <use style="fill:#1f77b4;fill-opacity:0;stroke:#1f77b4;stroke-opacity:0;" x="226.875102" xlink:href="#m340e30e9da" y="226.2"/>
     <use style="fill:#1f77b4;fill-opacity:0;stroke:#1f77b4;stroke-opacity:0;" x="384.425203" xlink:href="#m340e30e9da" y="82.2"/>
    </g>
   </g>
   <g id="PolyCollection_1">
    <path clip-path="url(#pebd9d760da)" d="M 91.832157 191.685716 
L 91.832157 295.056229 
L 94.787643 293.06373 
L 97.743128 291.069774 
L 100.698613 289.074709 
L 103.654099 287.079645 
L 106.609584 285.082971 
L 109.565069 283.080314 
L 112.520555 280.960761 
L 115.47604 279.021499 
L 118.431525 276.871413 
L 121.38701 274.639489 
L 124.342496 272.23637 
L 127.297981 269.830917 
L 130.253466 268.170886 
L 133.208952 266.61726 
L 136.164437 264.821382 
L 139.119922 262.724107 
L 142.075408 260.625029 
L 145.030893 258.858477 
L 147.986378 256.844491 
L 150.941864 254.579665 
L 153.897349 252.309399 
L 156.852834 250.117572 
L 159.80832 248.01323 
L 162.763805 246.167218 
L 165.71929 244.111935 
L 168.674775 242.04033 
L 171.630261 240.135612 
L 174.585746 237.990821 
L 177.541231 236.344069 
L 180.496717 234.594172 
L 183.452202 232.89798 
L 186.407687 230.988949 
L 189.363173 229.290729 
L 192.318658 227.730675 
L 195.274143 226.152266 
L 198.229629 224.898438 
L 201.185114 223.198877 
L 204.140599 222.217374 
L 207.096084 220.780577 
L 210.05157 219.446807 
L 213.007055 217.784582 
L 215.96254 216.30694 
L 218.918026 214.394024 
L 221.873511 212.539056 
L 224.828996 210.599112 
L 227.784482 209.927955 
L 230.739967 208.392576 
L 233.695452 207.229921 
L 236.650938 206.694055 
L 239.606423 205.857246 
L 242.561908 204.967577 
L 245.517394 204.451282 
L 248.472879 203.51165 
L 251.428364 202.392018 
L 254.383849 201.838486 
L 257.339335 201.216265 
L 260.29482 199.949787 
L 263.250305 199.218033 
L 266.205791 198.285478 
L 269.161276 197.733036 
L 272.116761 196.915404 
L 275.072247 195.847363 
L 278.027732 194.961161 
L 280.983217 194.483338 
L 283.938703 194.033969 
L 286.894188 193.575898 
L 289.849673 192.797782 
L 292.805158 192.431677 
L 295.760644 192.204816 
L 298.716129 191.864723 
L 301.671614 191.462087 
L 304.6271 190.835429 
L 307.582585 190.153111 
L 310.53807 189.412201 
L 313.493556 188.728906 
L 316.449041 188.04561 
L 319.404526 187.362315 
L 322.360012 186.67902 
L 325.315497 185.995724 
L 328.270982 185.312429 
L 331.226467 184.629133 
L 334.181953 184.224792 
L 337.137438 184.229674 
L 340.092923 183.858934 
L 343.048409 183.649848 
L 346.003894 183.477595 
L 348.959379 182.962821 
L 351.914865 182.539719 
L 354.87035 182.320067 
L 357.825835 182.180051 
L 360.781321 181.934208 
L 363.736806 181.703011 
L 366.692291 181.424428 
L 369.647777 181.100793 
L 372.603262 180.433629 
L 375.558747 179.904364 
L 378.514232 179.484752 
L 381.469718 179.54335 
L 384.425203 179.008516 
L 384.425203 73.224318 
L 384.425203 73.224318 
L 381.469718 75.25615 
L 378.514232 77.287982 
L 375.558747 79.190158 
L 372.603262 81.316812 
L 369.647777 83.379187 
L 366.692291 85.250103 
L 363.736806 86.987812 
L 360.781321 88.547467 
L 357.825835 90.733186 
L 354.87035 92.115485 
L 351.914865 93.497922 
L 348.959379 95.562187 
L 346.003894 97.476933 
L 343.048409 99.04817 
L 340.092923 100.600444 
L 337.137438 102.249531 
L 334.181953 104.17799 
L 331.226467 105.690084 
L 328.270982 107.508697 
L 325.315497 109.438109 
L 322.360012 110.872934 
L 319.404526 112.750335 
L 316.449041 114.555588 
L 313.493556 115.936747 
L 310.53807 117.769274 
L 307.582585 118.902827 
L 304.6271 120.760344 
L 301.671614 122.521333 
L 298.716129 123.776804 
L 295.760644 125.163784 
L 292.805158 126.731582 
L 289.849673 128.201846 
L 286.894188 129.443208 
L 283.938703 130.940317 
L 280.983217 132.255725 
L 278.027732 133.362067 
L 275.072247 134.894189 
L 272.116761 136.301705 
L 269.161276 137.812721 
L 266.205791 139.396216 
L 263.250305 140.847119 
L 260.29482 141.911164 
L 257.339335 143.586031 
L 254.383849 144.94899 
L 251.428364 146.310321 
L 248.472879 147.521094 
L 245.517394 148.535234 
L 242.561908 149.556549 
L 239.606423 150.928194 
L 236.650938 152.17206 
L 233.695452 153.416094 
L 230.739967 154.212075 
L 227.784482 154.979607 
L 224.828996 155.834339 
L 221.873511 156.670391 
L 218.918026 157.661043 
L 215.96254 158.673869 
L 213.007055 159.687566 
L 210.05157 160.725144 
L 207.096084 162.138666 
L 204.140599 162.870675 
L 201.185114 163.75269 
L 198.229629 164.944618 
L 195.274143 165.86608 
L 192.318658 166.912095 
L 189.363173 167.78393 
L 186.407687 168.792916 
L 183.452202 169.803445 
L 180.496717 170.813973 
L 177.541231 171.564117 
L 174.585746 172.201457 
L 171.630261 172.893368 
L 168.674775 173.807069 
L 165.71929 174.752645 
L 162.763805 175.817334 
L 159.80832 176.595675 
L 156.852834 177.493579 
L 153.897349 178.418105 
L 150.941864 179.35486 
L 147.986378 180.244862 
L 145.030893 181.116767 
L 142.075408 182.024034 
L 139.119922 182.435969 
L 136.164437 183.064637 
L 133.208952 183.176676 
L 130.253466 183.581557 
L 127.297981 184.04546 
L 124.342496 184.574638 
L 121.38701 185.320706 
L 118.431525 186.180988 
L 115.47604 187.015982 
L 112.520555 187.463285 
L 109.565069 187.867412 
L 106.609584 188.552524 
L 103.654099 189.320096 
L 100.698613 189.785287 
L 97.743128 190.427769 
L 94.787643 191.060223 
L 91.832157 191.685716 
z
" style="fill-opacity:0.15;"/>
   </g>
   <g id="PathCollection_2">
    <defs>
     <path d="M 0 3 
C 0.795609 3 1.55874 2.683901 2.12132 2.12132 
C 2.683901 1.55874 3 0.795609 3 0 
C 3 -0.795609 2.683901 -1.55874 2.12132 -2.12132 
C 1.55874 -2.683901 0.795609 -3 0 -3 
C -0.795609 -3 -1.55874 -2.683901 -2.12132 -2.12132 
C -2.683901 -1.55874 -3 -0.795609 -3 0 
C -3 0.795609 -2.683901 1.55874 -2.12132 2.12132 
C -1.55874 2.683901 -0.795609 3 0 3 
z
" id="m59e15e21eb" style="stroke:#808080;"/>
    </defs>
    <g clip-path="url(#pebd9d760da)">
     <use style="fill:#808080;stroke:#808080;" x="166.856015" xlink:href="#m59e15e21eb" y="214.2"/>
     <use style="fill:#808080;stroke:#808080;" x="226.875102" xlink:href="#m59e15e21eb" y="250.2"/>
     <use style="fill:#808080;stroke:#808080;" x="264.38703" xlink:href="#m59e15e21eb" y="172.2"/>
     <use style="fill:#808080;stroke:#808080;" x="264.38703" xlink:href="#m59e15e21eb" y="106.2"/>
     <use style="fill:#808080;stroke:#808080;" x="91.832157" xlink:href="#m59e15e21eb" y="202.2"/>
     <use style="fill:#808080;stroke:#808080;" x="121.841701" xlink:href="#m59e15e21eb" y="280.2"/>
     <use style="fill:#808080;stroke:#808080;" x="346.913274" xlink:href="#m59e15e21eb" y="58.2"/>
     <use style="fill:#808080;stroke:#808080;" x="346.913274" xlink:href="#m59e15e21eb" y="118.2"/>
     <use style="fill:#808080;stroke:#808080;" x="121.841701" xlink:href="#m59e15e21eb" y="250.2"/>
     <use style="fill:#808080;stroke:#808080;" x="346.913274" xlink:href="#m59e15e21eb" y="82.2"/>
     <use style="fill:#808080;stroke:#808080;" x="144.348858" xlink:href="#m59e15e21eb" y="190.2"/>
     <use style="fill:#808080;stroke:#808080;" x="346.913274" xlink:href="#m59e15e21eb" y="82.2"/>
     <use style="fill:#808080;stroke:#808080;" x="166.856015" xlink:href="#m59e15e21eb" y="148.2"/>
     <use style="fill:#808080;stroke:#808080;" x="264.38703" xlink:href="#m59e15e21eb" y="148.2"/>
     <use style="fill:#808080;stroke:#808080;" x="196.865558" xlink:href="#m59e15e21eb" y="172.2"/>
     <use style="fill:#808080;stroke:#808080;" x="226.875102" xlink:href="#m59e15e21eb" y="226.2"/>
     <use style="fill:#808080;stroke:#808080;" x="384.425203" xlink:href="#m59e15e21eb" y="82.2"/>
    </g>
   </g>
   <g id="PathCollection_3">
    <defs>
     <path d="M 0 3 
C 0.795609 3 1.55874 2.683901 2.12132 2.12132 
C 2.683901 1.55874 3 0.795609 3 0 
C 3 -0.795609 2.683901 -1.55874 2.12132 -2.12132 
C 1.55874 -2.683901 0.795609 -3 0 -3 
C -0.795609 -3 -1.55874 -2.683901 -2.12132 -2.12132 
C -2.683901 -1.55874 -3 -0.795609 -3 0 
C -3 0.795609 -2.683901 1.55874 -2.12132 2.12132 
C -1.55874 2.683901 -0.795609 3 0 3 
z
" id="m92a6f40eab" style="stroke:#ff0000;"/>
    </defs>
    <g clip-path="url(#pebd9d760da)">
     <use style="fill:#ff0000;stroke:#ff0000;" x="196.865558" xlink:href="#m92a6f40eab" y="298.2"/>
     <use style="fill:#ff0000;stroke:#ff0000;" x="91.832157" xlink:href="#m92a6f40eab" y="130.2"/>
     <use style="fill:#ff0000;stroke:#ff0000;" x="301.898959" xlink:href="#m92a6f40eab" y="250.2"/>
     <use style="fill:#ff0000;stroke:#ff0000;" x="301.898959" xlink:href="#m92a6f40eab" y="280.2"/>
    </g>
   </g>
   <g id="matplotlib.axis_1">
    <g id="xtick_1">
     <g id="line2d_1">
      <defs>
       <path d="M 0 0 
L 0 3.5 
" id="m5b2b226976" style="stroke:#000000;stroke-width:0.8;"/>
      </defs>
      <g>
       <use style="stroke:#000000;stroke-width:0.8;" x="69.325" xlink:href="#m5b2b226976" y="310.2"/>
      </g>
     </g>
     <g id="text_1">
      <!-- 0 -->
      <g transform="translate(65.5075 326.318125)scale(0.12 -0.12)">
       <defs>
        <path d="M 2034 4250 
Q 1547 4250 1301 3770 
Q 1056 3291 1056 2328 
Q 1056 1369 1301 889 
Q 1547 409 2034 409 
Q 2525 409 2770 889 
Q 3016 1369 3016 2328 
Q 3016 3291 2770 3770 
Q 2525 4250 2034 4250 
z
M 2034 4750 
Q 2819 4750 3233 4129 
Q 3647 3509 3647 2328 
Q 3647 1150 3233 529 
Q 2819 -91 2034 -91 
Q 1250 -91 836 529 
Q 422 1150 422 2328 
Q 422 3509 836 4129 
Q 1250 4750 2034 4750 
z
" id="DejaVuSans-30" transform="scale(0.015625)"/>
       </defs>
       <use xlink:href="#DejaVuSans-30"/>
      </g>
     </g>
    </g>
    <g id="xtick_2">
     <g id="line2d_2">
      <g>
       <use style="stroke:#000000;stroke-width:0.8;" x="144.348858" xlink:href="#m5b2b226976" y="310.2"/>
      </g>
     </g>
     <g id="text_2">
      <!-- 5 -->
      <g transform="translate(140.531358 326.318125)scale(0.12 -0.12)">
       <defs>
        <path d="M 691 4666 
L 3169 4666 
L 3169 4134 
L 1269 4134 
L 1269 2991 
Q 1406 3038 1543 3061 
Q 1681 3084 1819 3084 
Q 2600 3084 3056 2656 
Q 3513 2228 3513 1497 
Q 3513 744 3044 326 
Q 2575 -91 1722 -91 
Q 1428 -91 1123 -41 
Q 819 9 494 109 
L 494 744 
Q 775 591 1075 516 
Q 1375 441 1709 441 
Q 2250 441 2565 725 
Q 2881 1009 2881 1497 
Q 2881 1984 2565 2268 
Q 2250 2553 1709 2553 
Q 1456 2553 1204 2497 
Q 953 2441 691 2322 
L 691 4666 
z
" id="DejaVuSans-35" transform="scale(0.015625)"/>
       </defs>
       <use xlink:href="#DejaVuSans-35"/>
      </g>
     </g>
    </g>
    <g id="xtick_3">
     <g id="line2d_3">
      <g>
       <use style="stroke:#000000;stroke-width:0.8;" x="219.372716" xlink:href="#m5b2b226976" y="310.2"/>
      </g>
     </g>
     <g id="text_3">
      <!-- 10 -->
      <g transform="translate(211.737716 326.318125)scale(0.12 -0.12)">
       <defs>
        <path d="M 794 531 
L 1825 531 
L 1825 4091 
L 703 3866 
L 703 4441 
L 1819 4666 
L 2450 4666 
L 2450 531 
L 3481 531 
L 3481 0 
L 794 0 
L 794 531 
z
" id="DejaVuSans-31" transform="scale(0.015625)"/>
       </defs>
       <use xlink:href="#DejaVuSans-31"/>
       <use x="63.623047" xlink:href="#DejaVuSans-30"/>
      </g>
     </g>
    </g>
    <g id="xtick_4">
     <g id="line2d_4">
      <g>
       <use style="stroke:#000000;stroke-width:0.8;" x="294.396574" xlink:href="#m5b2b226976" y="310.2"/>
      </g>
     </g>
     <g id="text_4">
      <!-- 15 -->
      <g transform="translate(286.761574 326.318125)scale(0.12 -0.12)">
       <use xlink:href="#DejaVuSans-31"/>
       <use x="63.623047" xlink:href="#DejaVuSans-35"/>
      </g>
     </g>
    </g>
    <g id="xtick_5">
     <g id="line2d_5">
      <g>
       <use style="stroke:#000000;stroke-width:0.8;" x="369.420432" xlink:href="#m5b2b226976" y="310.2"/>
      </g>
     </g>
     <g id="text_5">
      <!-- 20 -->
      <g transform="translate(361.785432 326.318125)scale(0.12 -0.12)">
       <defs>
        <path d="M 1228 531 
L 3431 531 
L 3431 0 
L 469 0 
L 469 531 
Q 828 903 1448 1529 
Q 2069 2156 2228 2338 
Q 2531 2678 2651 2914 
Q 2772 3150 2772 3378 
Q 2772 3750 2511 3984 
Q 2250 4219 1831 4219 
Q 1534 4219 1204 4116 
Q 875 4013 500 3803 
L 500 4441 
Q 881 4594 1212 4672 
Q 1544 4750 1819 4750 
Q 2544 4750 2975 4387 
Q 3406 4025 3406 3419 
Q 3406 3131 3298 2873 
Q 3191 2616 2906 2266 
Q 2828 2175 2409 1742 
Q 1991 1309 1228 531 
z
" id="DejaVuSans-32" transform="scale(0.015625)"/>
       </defs>
       <use xlink:href="#DejaVuSans-32"/>
       <use x="63.623047" xlink:href="#DejaVuSans-30"/>
      </g>
     </g>
    </g>
    <g id="text_6">
     <!-- Rank of corporate ownership rate in 2004 -->
     <g transform="translate(67.273678 344.97125)scale(0.16 -0.16)">
      <defs>
       <path d="M 2841 2188 
Q 3044 2119 3236 1894 
Q 3428 1669 3622 1275 
L 4263 0 
L 3584 0 
L 2988 1197 
Q 2756 1666 2539 1819 
Q 2322 1972 1947 1972 
L 1259 1972 
L 1259 0 
L 628 0 
L 628 4666 
L 2053 4666 
Q 2853 4666 3247 4331 
Q 3641 3997 3641 3322 
Q 3641 2881 3436 2590 
Q 3231 2300 2841 2188 
z
M 1259 4147 
L 1259 2491 
L 2053 2491 
Q 2509 2491 2742 2702 
Q 2975 2913 2975 3322 
Q 2975 3731 2742 3939 
Q 2509 4147 2053 4147 
L 1259 4147 
z
" id="DejaVuSans-52" transform="scale(0.015625)"/>
       <path d="M 2194 1759 
Q 1497 1759 1228 1600 
Q 959 1441 959 1056 
Q 959 750 1161 570 
Q 1363 391 1709 391 
Q 2188 391 2477 730 
Q 2766 1069 2766 1631 
L 2766 1759 
L 2194 1759 
z
M 3341 1997 
L 3341 0 
L 2766 0 
L 2766 531 
Q 2569 213 2275 61 
Q 1981 -91 1556 -91 
Q 1019 -91 701 211 
Q 384 513 384 1019 
Q 384 1609 779 1909 
Q 1175 2209 1959 2209 
L 2766 2209 
L 2766 2266 
Q 2766 2663 2505 2880 
Q 2244 3097 1772 3097 
Q 1472 3097 1187 3025 
Q 903 2953 641 2809 
L 641 3341 
Q 956 3463 1253 3523 
Q 1550 3584 1831 3584 
Q 2591 3584 2966 3190 
Q 3341 2797 3341 1997 
z
" id="DejaVuSans-61" transform="scale(0.015625)"/>
       <path d="M 3513 2113 
L 3513 0 
L 2938 0 
L 2938 2094 
Q 2938 2591 2744 2837 
Q 2550 3084 2163 3084 
Q 1697 3084 1428 2787 
Q 1159 2491 1159 1978 
L 1159 0 
L 581 0 
L 581 3500 
L 1159 3500 
L 1159 2956 
Q 1366 3272 1645 3428 
Q 1925 3584 2291 3584 
Q 2894 3584 3203 3211 
Q 3513 2838 3513 2113 
z
" id="DejaVuSans-6e" transform="scale(0.015625)"/>
       <path d="M 581 4863 
L 1159 4863 
L 1159 1991 
L 2875 3500 
L 3609 3500 
L 1753 1863 
L 3688 0 
L 2938 0 
L 1159 1709 
L 1159 0 
L 581 0 
L 581 4863 
z
" id="DejaVuSans-6b" transform="scale(0.015625)"/>
       <path id="DejaVuSans-20" transform="scale(0.015625)"/>
       <path d="M 1959 3097 
Q 1497 3097 1228 2736 
Q 959 2375 959 1747 
Q 959 1119 1226 758 
Q 1494 397 1959 397 
Q 2419 397 2687 759 
Q 2956 1122 2956 1747 
Q 2956 2369 2687 2733 
Q 2419 3097 1959 3097 
z
M 1959 3584 
Q 2709 3584 3137 3096 
Q 3566 2609 3566 1747 
Q 3566 888 3137 398 
Q 2709 -91 1959 -91 
Q 1206 -91 779 398 
Q 353 888 353 1747 
Q 353 2609 779 3096 
Q 1206 3584 1959 3584 
z
" id="DejaVuSans-6f" transform="scale(0.015625)"/>
       <path d="M 2375 4863 
L 2375 4384 
L 1825 4384 
Q 1516 4384 1395 4259 
Q 1275 4134 1275 3809 
L 1275 3500 
L 2222 3500 
L 2222 3053 
L 1275 3053 
L 1275 0 
L 697 0 
L 697 3053 
L 147 3053 
L 147 3500 
L 697 3500 
L 697 3744 
Q 697 4328 969 4595 
Q 1241 4863 1831 4863 
L 2375 4863 
z
" id="DejaVuSans-66" transform="scale(0.015625)"/>
       <path d="M 3122 3366 
L 3122 2828 
Q 2878 2963 2633 3030 
Q 2388 3097 2138 3097 
Q 1578 3097 1268 2742 
Q 959 2388 959 1747 
Q 959 1106 1268 751 
Q 1578 397 2138 397 
Q 2388 397 2633 464 
Q 2878 531 3122 666 
L 3122 134 
Q 2881 22 2623 -34 
Q 2366 -91 2075 -91 
Q 1284 -91 818 406 
Q 353 903 353 1747 
Q 353 2603 823 3093 
Q 1294 3584 2113 3584 
Q 2378 3584 2631 3529 
Q 2884 3475 3122 3366 
z
" id="DejaVuSans-63" transform="scale(0.015625)"/>
       <path d="M 2631 2963 
Q 2534 3019 2420 3045 
Q 2306 3072 2169 3072 
Q 1681 3072 1420 2755 
Q 1159 2438 1159 1844 
L 1159 0 
L 581 0 
L 581 3500 
L 1159 3500 
L 1159 2956 
Q 1341 3275 1631 3429 
Q 1922 3584 2338 3584 
Q 2397 3584 2469 3576 
Q 2541 3569 2628 3553 
L 2631 2963 
z
" id="DejaVuSans-72" transform="scale(0.015625)"/>
       <path d="M 1159 525 
L 1159 -1331 
L 581 -1331 
L 581 3500 
L 1159 3500 
L 1159 2969 
Q 1341 3281 1617 3432 
Q 1894 3584 2278 3584 
Q 2916 3584 3314 3078 
Q 3713 2572 3713 1747 
Q 3713 922 3314 415 
Q 2916 -91 2278 -91 
Q 1894 -91 1617 61 
Q 1341 213 1159 525 
z
M 3116 1747 
Q 3116 2381 2855 2742 
Q 2594 3103 2138 3103 
Q 1681 3103 1420 2742 
Q 1159 2381 1159 1747 
Q 1159 1113 1420 752 
Q 1681 391 2138 391 
Q 2594 391 2855 752 
Q 3116 1113 3116 1747 
z
" id="DejaVuSans-70" transform="scale(0.015625)"/>
       <path d="M 1172 4494 
L 1172 3500 
L 2356 3500 
L 2356 3053 
L 1172 3053 
L 1172 1153 
Q 1172 725 1289 603 
Q 1406 481 1766 481 
L 2356 481 
L 2356 0 
L 1766 0 
Q 1100 0 847 248 
Q 594 497 594 1153 
L 594 3053 
L 172 3053 
L 172 3500 
L 594 3500 
L 594 4494 
L 1172 4494 
z
" id="DejaVuSans-74" transform="scale(0.015625)"/>
       <path d="M 3597 1894 
L 3597 1613 
L 953 1613 
Q 991 1019 1311 708 
Q 1631 397 2203 397 
Q 2534 397 2845 478 
Q 3156 559 3463 722 
L 3463 178 
Q 3153 47 2828 -22 
Q 2503 -91 2169 -91 
Q 1331 -91 842 396 
Q 353 884 353 1716 
Q 353 2575 817 3079 
Q 1281 3584 2069 3584 
Q 2775 3584 3186 3129 
Q 3597 2675 3597 1894 
z
M 3022 2063 
Q 3016 2534 2758 2815 
Q 2500 3097 2075 3097 
Q 1594 3097 1305 2825 
Q 1016 2553 972 2059 
L 3022 2063 
z
" id="DejaVuSans-65" transform="scale(0.015625)"/>
       <path d="M 269 3500 
L 844 3500 
L 1563 769 
L 2278 3500 
L 2956 3500 
L 3675 769 
L 4391 3500 
L 4966 3500 
L 4050 0 
L 3372 0 
L 2619 2869 
L 1863 0 
L 1184 0 
L 269 3500 
z
" id="DejaVuSans-77" transform="scale(0.015625)"/>
       <path d="M 2834 3397 
L 2834 2853 
Q 2591 2978 2328 3040 
Q 2066 3103 1784 3103 
Q 1356 3103 1142 2972 
Q 928 2841 928 2578 
Q 928 2378 1081 2264 
Q 1234 2150 1697 2047 
L 1894 2003 
Q 2506 1872 2764 1633 
Q 3022 1394 3022 966 
Q 3022 478 2636 193 
Q 2250 -91 1575 -91 
Q 1294 -91 989 -36 
Q 684 19 347 128 
L 347 722 
Q 666 556 975 473 
Q 1284 391 1588 391 
Q 1994 391 2212 530 
Q 2431 669 2431 922 
Q 2431 1156 2273 1281 
Q 2116 1406 1581 1522 
L 1381 1569 
Q 847 1681 609 1914 
Q 372 2147 372 2553 
Q 372 3047 722 3315 
Q 1072 3584 1716 3584 
Q 2034 3584 2315 3537 
Q 2597 3491 2834 3397 
z
" id="DejaVuSans-73" transform="scale(0.015625)"/>
       <path d="M 3513 2113 
L 3513 0 
L 2938 0 
L 2938 2094 
Q 2938 2591 2744 2837 
Q 2550 3084 2163 3084 
Q 1697 3084 1428 2787 
Q 1159 2491 1159 1978 
L 1159 0 
L 581 0 
L 581 4863 
L 1159 4863 
L 1159 2956 
Q 1366 3272 1645 3428 
Q 1925 3584 2291 3584 
Q 2894 3584 3203 3211 
Q 3513 2838 3513 2113 
z
" id="DejaVuSans-68" transform="scale(0.015625)"/>
       <path d="M 603 3500 
L 1178 3500 
L 1178 0 
L 603 0 
L 603 3500 
z
M 603 4863 
L 1178 4863 
L 1178 4134 
L 603 4134 
L 603 4863 
z
" id="DejaVuSans-69" transform="scale(0.015625)"/>
       <path d="M 2419 4116 
L 825 1625 
L 2419 1625 
L 2419 4116 
z
M 2253 4666 
L 3047 4666 
L 3047 1625 
L 3713 1625 
L 3713 1100 
L 3047 1100 
L 3047 0 
L 2419 0 
L 2419 1100 
L 313 1100 
L 313 1709 
L 2253 4666 
z
" id="DejaVuSans-34" transform="scale(0.015625)"/>
      </defs>
      <use xlink:href="#DejaVuSans-52"/>
      <use x="67.232422" xlink:href="#DejaVuSans-61"/>
      <use x="128.511719" xlink:href="#DejaVuSans-6e"/>
      <use x="191.890625" xlink:href="#DejaVuSans-6b"/>
      <use x="249.800781" xlink:href="#DejaVuSans-20"/>
      <use x="281.587891" xlink:href="#DejaVuSans-6f"/>
      <use x="342.769531" xlink:href="#DejaVuSans-66"/>
      <use x="377.974609" xlink:href="#DejaVuSans-20"/>
      <use x="409.761719" xlink:href="#DejaVuSans-63"/>
      <use x="464.742188" xlink:href="#DejaVuSans-6f"/>
      <use x="525.923828" xlink:href="#DejaVuSans-72"/>
      <use x="567.037109" xlink:href="#DejaVuSans-70"/>
      <use x="630.513672" xlink:href="#DejaVuSans-6f"/>
      <use x="691.695312" xlink:href="#DejaVuSans-72"/>
      <use x="732.808594" xlink:href="#DejaVuSans-61"/>
      <use x="794.087891" xlink:href="#DejaVuSans-74"/>
      <use x="833.296875" xlink:href="#DejaVuSans-65"/>
      <use x="894.820312" xlink:href="#DejaVuSans-20"/>
      <use x="926.607422" xlink:href="#DejaVuSans-6f"/>
      <use x="987.789062" xlink:href="#DejaVuSans-77"/>
      <use x="1069.576172" xlink:href="#DejaVuSans-6e"/>
      <use x="1132.955078" xlink:href="#DejaVuSans-65"/>
      <use x="1194.478516" xlink:href="#DejaVuSans-72"/>
      <use x="1235.591797" xlink:href="#DejaVuSans-73"/>
      <use x="1287.691406" xlink:href="#DejaVuSans-68"/>
      <use x="1351.070312" xlink:href="#DejaVuSans-69"/>
      <use x="1378.853516" xlink:href="#DejaVuSans-70"/>
      <use x="1442.330078" xlink:href="#DejaVuSans-20"/>
      <use x="1474.117188" xlink:href="#DejaVuSans-72"/>
      <use x="1515.230469" xlink:href="#DejaVuSans-61"/>
      <use x="1576.509766" xlink:href="#DejaVuSans-74"/>
      <use x="1615.71875" xlink:href="#DejaVuSans-65"/>
      <use x="1677.242188" xlink:href="#DejaVuSans-20"/>
      <use x="1709.029297" xlink:href="#DejaVuSans-69"/>
      <use x="1736.8125" xlink:href="#DejaVuSans-6e"/>
      <use x="1800.191406" xlink:href="#DejaVuSans-20"/>
      <use x="1831.978516" xlink:href="#DejaVuSans-32"/>
      <use x="1895.601562" xlink:href="#DejaVuSans-30"/>
      <use x="1959.224609" xlink:href="#DejaVuSans-30"/>
      <use x="2022.847656" xlink:href="#DejaVuSans-34"/>
     </g>
    </g>
   </g>
   <g id="matplotlib.axis_2">
    <g id="ytick_1">
     <g id="line2d_6">
      <defs>
       <path d="M 0 0 
L -3.5 0 
" id="m9b005562ad" style="stroke:#000000;stroke-width:0.8;"/>
      </defs>
      <g>
       <use style="stroke:#000000;stroke-width:0.8;" x="69.325" xlink:href="#m9b005562ad" y="310.2"/>
      </g>
     </g>
     <g id="text_7">
      <!-- 0 -->
      <g transform="translate(54.69 314.759063)scale(0.12 -0.12)">
       <use xlink:href="#DejaVuSans-30"/>
      </g>
     </g>
    </g>
    <g id="ytick_2">
     <g id="line2d_7">
      <g>
       <use style="stroke:#000000;stroke-width:0.8;" x="69.325" xlink:href="#m9b005562ad" y="250.2"/>
      </g>
     </g>
     <g id="text_8">
      <!-- 5 -->
      <g transform="translate(54.69 254.759063)scale(0.12 -0.12)">
       <use xlink:href="#DejaVuSans-35"/>
      </g>
     </g>
    </g>
    <g id="ytick_3">
     <g id="line2d_8">
      <g>
       <use style="stroke:#000000;stroke-width:0.8;" x="69.325" xlink:href="#m9b005562ad" y="190.2"/>
      </g>
     </g>
     <g id="text_9">
      <!-- 10 -->
      <g transform="translate(47.055 194.759063)scale(0.12 -0.12)">
       <use xlink:href="#DejaVuSans-31"/>
       <use x="63.623047" xlink:href="#DejaVuSans-30"/>
      </g>
     </g>
    </g>
    <g id="ytick_4">
     <g id="line2d_9">
      <g>
       <use style="stroke:#000000;stroke-width:0.8;" x="69.325" xlink:href="#m9b005562ad" y="130.2"/>
      </g>
     </g>
     <g id="text_10">
      <!-- 15 -->
      <g transform="translate(47.055 134.759063)scale(0.12 -0.12)">
       <use xlink:href="#DejaVuSans-31"/>
       <use x="63.623047" xlink:href="#DejaVuSans-35"/>
      </g>
     </g>
    </g>
    <g id="ytick_5">
     <g id="line2d_10">
      <g>
       <use style="stroke:#000000;stroke-width:0.8;" x="69.325" xlink:href="#m9b005562ad" y="70.2"/>
      </g>
     </g>
     <g id="text_11">
      <!-- 20 -->
      <g transform="translate(47.055 74.759063)scale(0.12 -0.12)">
       <use xlink:href="#DejaVuSans-32"/>
       <use x="63.623047" xlink:href="#DejaVuSans-30"/>
      </g>
     </g>
    </g>
    <g id="text_12">
     <!-- Rank of Δcorporate ownership rate -->
     <g transform="translate(21.811 317.85125)rotate(-90)scale(0.16 -0.16)">
      <defs>
       <path d="M 2188 4044 
L 906 525 
L 3472 525 
L 2188 4044 
z
M 50 0 
L 1831 4666 
L 2547 4666 
L 4325 0 
L 50 0 
z
" id="DejaVuSans-394" transform="scale(0.015625)"/>
      </defs>
      <use xlink:href="#DejaVuSans-52"/>
      <use x="67.232422" xlink:href="#DejaVuSans-61"/>
      <use x="128.511719" xlink:href="#DejaVuSans-6e"/>
      <use x="191.890625" xlink:href="#DejaVuSans-6b"/>
      <use x="249.800781" xlink:href="#DejaVuSans-20"/>
      <use x="281.587891" xlink:href="#DejaVuSans-6f"/>
      <use x="342.769531" xlink:href="#DejaVuSans-66"/>
      <use x="377.974609" xlink:href="#DejaVuSans-20"/>
      <use x="409.761719" xlink:href="#DejaVuSans-394"/>
      <use x="478.169922" xlink:href="#DejaVuSans-63"/>
      <use x="533.150391" xlink:href="#DejaVuSans-6f"/>
      <use x="594.332031" xlink:href="#DejaVuSans-72"/>
      <use x="635.445312" xlink:href="#DejaVuSans-70"/>
      <use x="698.921875" xlink:href="#DejaVuSans-6f"/>
      <use x="760.103516" xlink:href="#DejaVuSans-72"/>
      <use x="801.216797" xlink:href="#DejaVuSans-61"/>
      <use x="862.496094" xlink:href="#DejaVuSans-74"/>
      <use x="901.705078" xlink:href="#DejaVuSans-65"/>
      <use x="963.228516" xlink:href="#DejaVuSans-20"/>
      <use x="995.015625" xlink:href="#DejaVuSans-6f"/>
      <use x="1056.197266" xlink:href="#DejaVuSans-77"/>
      <use x="1137.984375" xlink:href="#DejaVuSans-6e"/>
      <use x="1201.363281" xlink:href="#DejaVuSans-65"/>
      <use x="1262.886719" xlink:href="#DejaVuSans-72"/>
      <use x="1304" xlink:href="#DejaVuSans-73"/>
      <use x="1356.099609" xlink:href="#DejaVuSans-68"/>
      <use x="1419.478516" xlink:href="#DejaVuSans-69"/>
      <use x="1447.261719" xlink:href="#DejaVuSans-70"/>
      <use x="1510.738281" xlink:href="#DejaVuSans-20"/>
      <use x="1542.525391" xlink:href="#DejaVuSans-72"/>
      <use x="1583.638672" xlink:href="#DejaVuSans-61"/>
      <use x="1644.917969" xlink:href="#DejaVuSans-74"/>
      <use x="1684.126953" xlink:href="#DejaVuSans-65"/>
     </g>
     <!-- (2004-2024) -->
     <g transform="translate(39.7275 228.04875)rotate(-90)scale(0.16 -0.16)">
      <defs>
       <path d="M 1984 4856 
Q 1566 4138 1362 3434 
Q 1159 2731 1159 2009 
Q 1159 1288 1364 580 
Q 1569 -128 1984 -844 
L 1484 -844 
Q 1016 -109 783 600 
Q 550 1309 550 2009 
Q 550 2706 781 3412 
Q 1013 4119 1484 4856 
L 1984 4856 
z
" id="DejaVuSans-28" transform="scale(0.015625)"/>
       <path d="M 313 2009 
L 1997 2009 
L 1997 1497 
L 313 1497 
L 313 2009 
z
" id="DejaVuSans-2d" transform="scale(0.015625)"/>
       <path d="M 513 4856 
L 1013 4856 
Q 1481 4119 1714 3412 
Q 1947 2706 1947 2009 
Q 1947 1309 1714 600 
Q 1481 -109 1013 -844 
L 513 -844 
Q 928 -128 1133 580 
Q 1338 1288 1338 2009 
Q 1338 2731 1133 3434 
Q 928 4138 513 4856 
z
" id="DejaVuSans-29" transform="scale(0.015625)"/>
      </defs>
      <use xlink:href="#DejaVuSans-28"/>
      <use x="39.013672" xlink:href="#DejaVuSans-32"/>
      <use x="102.636719" xlink:href="#DejaVuSans-30"/>
      <use x="166.259766" xlink:href="#DejaVuSans-30"/>
      <use x="229.882812" xlink:href="#DejaVuSans-34"/>
      <use x="293.505859" xlink:href="#DejaVuSans-2d"/>
      <use x="329.589844" xlink:href="#DejaVuSans-32"/>
      <use x="393.212891" xlink:href="#DejaVuSans-30"/>
      <use x="456.835938" xlink:href="#DejaVuSans-32"/>
      <use x="520.458984" xlink:href="#DejaVuSans-34"/>
      <use x="584.082031" xlink:href="#DejaVuSans-29"/>
     </g>
    </g>
   </g>
   <g id="line2d_11">
    <path clip-path="url(#pebd9d760da)" d="M 91.832157 237 
L 94.787643 235.780861 
L 97.743128 234.561722 
L 100.698613 233.342584 
L 103.654099 232.123445 
L 106.609584 230.904306 
L 109.565069 229.685167 
L 112.520555 228.466029 
L 115.47604 227.24689 
L 118.431525 226.027751 
L 121.38701 224.808612 
L 124.342496 223.589474 
L 127.297981 222.370335 
L 130.253466 221.151196 
L 133.208952 219.932057 
L 136.164437 218.712919 
L 139.119922 217.49378 
L 142.075408 216.274641 
L 145.030893 215.055502 
L 147.986378 213.836364 
L 150.941864 212.617225 
L 153.897349 211.398086 
L 156.852834 210.178947 
L 159.80832 208.959809 
L 162.763805 207.74067 
L 165.71929 206.521531 
L 168.674775 205.302392 
L 171.630261 204.083254 
L 174.585746 202.864115 
L 177.541231 201.644976 
L 180.496717 200.425837 
L 183.452202 199.206699 
L 186.407687 197.98756 
L 189.363173 196.768421 
L 192.318658 195.549282 
L 195.274143 194.330144 
L 198.229629 193.111005 
L 201.185114 191.891866 
L 204.140599 190.672727 
L 207.096084 189.453589 
L 210.05157 188.23445 
L 213.007055 187.015311 
L 215.96254 185.796172 
L 218.918026 184.577033 
L 221.873511 183.357895 
L 224.828996 182.138756 
L 227.784482 180.919617 
L 230.739967 179.700478 
L 233.695452 178.48134 
L 236.650938 177.262201 
L 239.606423 176.043062 
L 242.561908 174.823923 
L 245.517394 173.604785 
L 248.472879 172.385646 
L 251.428364 171.166507 
L 254.383849 169.947368 
L 257.339335 168.72823 
L 260.29482 167.509091 
L 263.250305 166.289952 
L 266.205791 165.070813 
L 269.161276 163.851675 
L 272.116761 162.632536 
L 275.072247 161.413397 
L 278.027732 160.194258 
L 280.983217 158.97512 
L 283.938703 157.755981 
L 286.894188 156.536842 
L 289.849673 155.317703 
L 292.805158 154.098565 
L 295.760644 152.879426 
L 298.716129 151.660287 
L 301.671614 150.441148 
L 304.6271 149.22201 
L 307.582585 148.002871 
L 310.53807 146.783732 
L 313.493556 145.564593 
L 316.449041 144.345455 
L 319.404526 143.126316 
L 322.360012 141.907177 
L 325.315497 140.688038 
L 328.270982 139.4689 
L 331.226467 138.249761 
L 334.181953 137.030622 
L 337.137438 135.811483 
L 340.092923 134.592344 
L 343.048409 133.373206 
L 346.003894 132.154067 
L 348.959379 130.934928 
L 351.914865 129.715789 
L 354.87035 128.496651 
L 357.825835 127.277512 
L 360.781321 126.058373 
L 363.736806 124.839234 
L 366.692291 123.620096 
L 369.647777 122.400957 
L 372.603262 121.181818 
L 375.558747 119.962679 
L 378.514232 118.743541 
L 381.469718 117.524402 
L 384.425203 116.305263 
" style="fill:none;stroke:#000000;stroke-dasharray:8.325,3.6;stroke-dashoffset:0;stroke-width:2.25;"/>
   </g>
   <g id="patch_3">
    <path d="M 69.325 310.2 
L 69.325 46.2 
" style="fill:none;stroke:#000000;stroke-linecap:square;stroke-linejoin:miter;stroke-width:0.8;"/>
   </g>
   <g id="patch_4">
    <path d="M 399.054855 310.2 
L 399.054855 46.2 
" style="fill:none;stroke:#000000;stroke-linecap:square;stroke-linejoin:miter;stroke-width:0.8;"/>
   </g>
   <g id="patch_5">
    <path d="M 69.325 310.2 
L 399.054855 310.2 
" style="fill:none;stroke:#000000;stroke-linecap:square;stroke-linejoin:miter;stroke-width:0.8;"/>
   </g>
   <g id="patch_6">
    <path d="M 69.325 46.2 
L 399.054855 46.2 
" style="fill:none;stroke:#000000;stroke-linecap:square;stroke-linejoin:miter;stroke-width:0.8;"/>
   </g>
   <g id="text_13">
    <!-- South Boston Waterfront -->
    <g transform="translate(199.866513 295.8)scale(0.12 -0.12)">
     <defs>
      <path d="M 3425 4513 
L 3425 3897 
Q 3066 4069 2747 4153 
Q 2428 4238 2131 4238 
Q 1616 4238 1336 4038 
Q 1056 3838 1056 3469 
Q 1056 3159 1242 3001 
Q 1428 2844 1947 2747 
L 2328 2669 
Q 3034 2534 3370 2195 
Q 3706 1856 3706 1288 
Q 3706 609 3251 259 
Q 2797 -91 1919 -91 
Q 1588 -91 1214 -16 
Q 841 59 441 206 
L 441 856 
Q 825 641 1194 531 
Q 1563 422 1919 422 
Q 2459 422 2753 634 
Q 3047 847 3047 1241 
Q 3047 1584 2836 1778 
Q 2625 1972 2144 2069 
L 1759 2144 
Q 1053 2284 737 2584 
Q 422 2884 422 3419 
Q 422 4038 858 4394 
Q 1294 4750 2059 4750 
Q 2388 4750 2728 4690 
Q 3069 4631 3425 4513 
z
" id="DejaVuSans-53" transform="scale(0.015625)"/>
      <path d="M 544 1381 
L 544 3500 
L 1119 3500 
L 1119 1403 
Q 1119 906 1312 657 
Q 1506 409 1894 409 
Q 2359 409 2629 706 
Q 2900 1003 2900 1516 
L 2900 3500 
L 3475 3500 
L 3475 0 
L 2900 0 
L 2900 538 
Q 2691 219 2414 64 
Q 2138 -91 1772 -91 
Q 1169 -91 856 284 
Q 544 659 544 1381 
z
M 1991 3584 
L 1991 3584 
z
" id="DejaVuSans-75" transform="scale(0.015625)"/>
      <path d="M 1259 2228 
L 1259 519 
L 2272 519 
Q 2781 519 3026 730 
Q 3272 941 3272 1375 
Q 3272 1813 3026 2020 
Q 2781 2228 2272 2228 
L 1259 2228 
z
M 1259 4147 
L 1259 2741 
L 2194 2741 
Q 2656 2741 2882 2914 
Q 3109 3088 3109 3444 
Q 3109 3797 2882 3972 
Q 2656 4147 2194 4147 
L 1259 4147 
z
M 628 4666 
L 2241 4666 
Q 2963 4666 3353 4366 
Q 3744 4066 3744 3513 
Q 3744 3084 3544 2831 
Q 3344 2578 2956 2516 
Q 3422 2416 3680 2098 
Q 3938 1781 3938 1306 
Q 3938 681 3513 340 
Q 3088 0 2303 0 
L 628 0 
L 628 4666 
z
" id="DejaVuSans-42" transform="scale(0.015625)"/>
      <path d="M 213 4666 
L 850 4666 
L 1831 722 
L 2809 4666 
L 3519 4666 
L 4500 722 
L 5478 4666 
L 6119 4666 
L 4947 0 
L 4153 0 
L 3169 4050 
L 2175 0 
L 1381 0 
L 213 4666 
z
" id="DejaVuSans-57" transform="scale(0.015625)"/>
     </defs>
     <use xlink:href="#DejaVuSans-53"/>
     <use x="63.476562" xlink:href="#DejaVuSans-6f"/>
     <use x="124.658203" xlink:href="#DejaVuSans-75"/>
     <use x="188.037109" xlink:href="#DejaVuSans-74"/>
     <use x="227.246094" xlink:href="#DejaVuSans-68"/>
     <use x="290.625" xlink:href="#DejaVuSans-20"/>
     <use x="322.412109" xlink:href="#DejaVuSans-42"/>
     <use x="391.015625" xlink:href="#DejaVuSans-6f"/>
     <use x="452.197266" xlink:href="#DejaVuSans-73"/>
     <use x="504.296875" xlink:href="#DejaVuSans-74"/>
     <use x="543.505859" xlink:href="#DejaVuSans-6f"/>
     <use x="604.6875" xlink:href="#DejaVuSans-6e"/>
     <use x="668.066406" xlink:href="#DejaVuSans-20"/>
     <use x="699.853516" xlink:href="#DejaVuSans-57"/>
     <use x="792.355469" xlink:href="#DejaVuSans-61"/>
     <use x="853.634766" xlink:href="#DejaVuSans-74"/>
     <use x="892.84375" xlink:href="#DejaVuSans-65"/>
     <use x="954.367188" xlink:href="#DejaVuSans-72"/>
     <use x="995.480469" xlink:href="#DejaVuSans-66"/>
     <use x="1030.685547" xlink:href="#DejaVuSans-72"/>
     <use x="1069.548828" xlink:href="#DejaVuSans-6f"/>
     <use x="1130.730469" xlink:href="#DejaVuSans-6e"/>
     <use x="1194.109375" xlink:href="#DejaVuSans-74"/>
    </g>
   </g>
   <g id="text_14">
    <!-- Chinatown -->
    <g transform="translate(94.833112 127.8)scale(0.12 -0.12)">
     <defs>
      <path d="M 4122 4306 
L 4122 3641 
Q 3803 3938 3442 4084 
Q 3081 4231 2675 4231 
Q 1875 4231 1450 3742 
Q 1025 3253 1025 2328 
Q 1025 1406 1450 917 
Q 1875 428 2675 428 
Q 3081 428 3442 575 
Q 3803 722 4122 1019 
L 4122 359 
Q 3791 134 3420 21 
Q 3050 -91 2638 -91 
Q 1578 -91 968 557 
Q 359 1206 359 2328 
Q 359 3453 968 4101 
Q 1578 4750 2638 4750 
Q 3056 4750 3426 4639 
Q 3797 4528 4122 4306 
z
" id="DejaVuSans-43" transform="scale(0.015625)"/>
     </defs>
     <use xlink:href="#DejaVuSans-43"/>
     <use x="69.824219" xlink:href="#DejaVuSans-68"/>
     <use x="133.203125" xlink:href="#DejaVuSans-69"/>
     <use x="160.986328" xlink:href="#DejaVuSans-6e"/>
     <use x="224.365234" xlink:href="#DejaVuSans-61"/>
     <use x="285.644531" xlink:href="#DejaVuSans-74"/>
     <use x="324.853516" xlink:href="#DejaVuSans-6f"/>
     <use x="386.035156" xlink:href="#DejaVuSans-77"/>
     <use x="467.822266" xlink:href="#DejaVuSans-6e"/>
    </g>
   </g>
   <g id="text_15">
    <!-- Charlestown -->
    <g transform="translate(304.899914 247.8)scale(0.12 -0.12)">
     <defs>
      <path d="M 603 4863 
L 1178 4863 
L 1178 0 
L 603 0 
L 603 4863 
z
" id="DejaVuSans-6c" transform="scale(0.015625)"/>
     </defs>
     <use xlink:href="#DejaVuSans-43"/>
     <use x="69.824219" xlink:href="#DejaVuSans-68"/>
     <use x="133.203125" xlink:href="#DejaVuSans-61"/>
     <use x="194.482422" xlink:href="#DejaVuSans-72"/>
     <use x="235.595703" xlink:href="#DejaVuSans-6c"/>
     <use x="263.378906" xlink:href="#DejaVuSans-65"/>
     <use x="324.902344" xlink:href="#DejaVuSans-73"/>
     <use x="377.001953" xlink:href="#DejaVuSans-74"/>
     <use x="416.210938" xlink:href="#DejaVuSans-6f"/>
     <use x="477.392578" xlink:href="#DejaVuSans-77"/>
     <use x="559.179688" xlink:href="#DejaVuSans-6e"/>
    </g>
   </g>
   <g id="text_16">
    <!-- East Boston -->
    <g transform="translate(304.899914 277.8)scale(0.12 -0.12)">
     <defs>
      <path d="M 628 4666 
L 3578 4666 
L 3578 4134 
L 1259 4134 
L 1259 2753 
L 3481 2753 
L 3481 2222 
L 1259 2222 
L 1259 531 
L 3634 531 
L 3634 0 
L 628 0 
L 628 4666 
z
" id="DejaVuSans-45" transform="scale(0.015625)"/>
     </defs>
     <use xlink:href="#DejaVuSans-45"/>
     <use x="63.183594" xlink:href="#DejaVuSans-61"/>
     <use x="124.462891" xlink:href="#DejaVuSans-73"/>
     <use x="176.5625" xlink:href="#DejaVuSans-74"/>
     <use x="215.771484" xlink:href="#DejaVuSans-20"/>
     <use x="247.558594" xlink:href="#DejaVuSans-42"/>
     <use x="316.162109" xlink:href="#DejaVuSans-6f"/>
     <use x="377.34375" xlink:href="#DejaVuSans-73"/>
     <use x="429.443359" xlink:href="#DejaVuSans-74"/>
     <use x="468.652344" xlink:href="#DejaVuSans-6f"/>
     <use x="529.833984" xlink:href="#DejaVuSans-6e"/>
    </g>
   </g>
   <g id="text_17">
    <!-- ρ: 0.51 -->
    <g transform="translate(84.329772 66.523063)scale(0.14 -0.14)">
     <defs>
      <path d="M 863 2875 
Q 1053 3194 1525 3475 
Q 1709 3584 2278 3584 
Q 2916 3584 3314 3078 
Q 3713 2572 3713 1747 
Q 3713 922 3314 415 
Q 2916 -91 2278 -91 
Q 1894 -91 1617 61 
Q 1341 213 1159 525 
L 1159 -1331 
L 581 -1331 
L 581 1716 
Q 581 2438 863 2875 
z
M 3116 1747 
Q 3116 2381 2855 2742 
Q 2594 3103 2138 3103 
Q 1681 3103 1420 2742 
Q 1159 2381 1159 1747 
Q 1159 1113 1420 752 
Q 1681 391 2138 391 
Q 2594 391 2855 752 
Q 3116 1113 3116 1747 
z
" id="DejaVuSans-3c1" transform="scale(0.015625)"/>
      <path d="M 750 794 
L 1409 794 
L 1409 0 
L 750 0 
L 750 794 
z
M 750 3309 
L 1409 3309 
L 1409 2516 
L 750 2516 
L 750 3309 
z
" id="DejaVuSans-3a" transform="scale(0.015625)"/>
      <path d="M 684 794 
L 1344 794 
L 1344 0 
L 684 0 
L 684 794 
z
" id="DejaVuSans-2e" transform="scale(0.015625)"/>
     </defs>
     <use xlink:href="#DejaVuSans-3c1"/>
     <use x="63.476562" xlink:href="#DejaVuSans-3a"/>
     <use x="97.167969" xlink:href="#DejaVuSans-20"/>
     <use x="128.955078" xlink:href="#DejaVuSans-30"/>
     <use x="192.578125" xlink:href="#DejaVuSans-2e"/>
     <use x="224.365234" xlink:href="#DejaVuSans-35"/>
     <use x="287.988281" xlink:href="#DejaVuSans-31"/>
    </g>
    <!-- p-value:  0.02 -->
    <g transform="translate(84.329772 82.2)scale(0.14 -0.14)">
     <defs>
      <path d="M 191 3500 
L 800 3500 
L 1894 563 
L 2988 3500 
L 3597 3500 
L 2284 0 
L 1503 0 
L 191 3500 
z
" id="DejaVuSans-76" transform="scale(0.015625)"/>
     </defs>
     <use xlink:href="#DejaVuSans-70"/>
     <use x="63.476562" xlink:href="#DejaVuSans-2d"/>
     <use x="96.935547" xlink:href="#DejaVuSans-76"/>
     <use x="156.115234" xlink:href="#DejaVuSans-61"/>
     <use x="217.394531" xlink:href="#DejaVuSans-6c"/>
     <use x="245.177734" xlink:href="#DejaVuSans-75"/>
     <use x="308.556641" xlink:href="#DejaVuSans-65"/>
     <use x="370.080078" xlink:href="#DejaVuSans-3a"/>
     <use x="403.771484" xlink:href="#DejaVuSans-20"/>
     <use x="435.558594" xlink:href="#DejaVuSans-20"/>
     <use x="467.345703" xlink:href="#DejaVuSans-30"/>
     <use x="530.96875" xlink:href="#DejaVuSans-2e"/>
     <use x="562.755859" xlink:href="#DejaVuSans-30"/>
     <use x="626.378906" xlink:href="#DejaVuSans-32"/>
    </g>
   </g>
   <g id="text_18">
    <!-- Rank correlation between corporate ownership in 2004 -->
    <g transform="translate(13.717428 22.2835)scale(0.16 -0.16)">
     <defs>
      <path d="M 3116 1747 
Q 3116 2381 2855 2742 
Q 2594 3103 2138 3103 
Q 1681 3103 1420 2742 
Q 1159 2381 1159 1747 
Q 1159 1113 1420 752 
Q 1681 391 2138 391 
Q 2594 391 2855 752 
Q 3116 1113 3116 1747 
z
M 1159 2969 
Q 1341 3281 1617 3432 
Q 1894 3584 2278 3584 
Q 2916 3584 3314 3078 
Q 3713 2572 3713 1747 
Q 3713 922 3314 415 
Q 2916 -91 2278 -91 
Q 1894 -91 1617 61 
Q 1341 213 1159 525 
L 1159 0 
L 581 0 
L 581 4863 
L 1159 4863 
L 1159 2969 
z
" id="DejaVuSans-62" transform="scale(0.015625)"/>
     </defs>
     <use xlink:href="#DejaVuSans-52"/>
     <use x="67.232422" xlink:href="#DejaVuSans-61"/>
     <use x="128.511719" xlink:href="#DejaVuSans-6e"/>
     <use x="191.890625" xlink:href="#DejaVuSans-6b"/>
     <use x="249.800781" xlink:href="#DejaVuSans-20"/>
     <use x="281.587891" xlink:href="#DejaVuSans-63"/>
     <use x="336.568359" xlink:href="#DejaVuSans-6f"/>
     <use x="397.75" xlink:href="#DejaVuSans-72"/>
     <use x="437.113281" xlink:href="#DejaVuSans-72"/>
     <use x="475.976562" xlink:href="#DejaVuSans-65"/>
     <use x="537.5" xlink:href="#DejaVuSans-6c"/>
     <use x="565.283203" xlink:href="#DejaVuSans-61"/>
     <use x="626.5625" xlink:href="#DejaVuSans-74"/>
     <use x="665.771484" xlink:href="#DejaVuSans-69"/>
     <use x="693.554688" xlink:href="#DejaVuSans-6f"/>
     <use x="754.736328" xlink:href="#DejaVuSans-6e"/>
     <use x="818.115234" xlink:href="#DejaVuSans-20"/>
     <use x="849.902344" xlink:href="#DejaVuSans-62"/>
     <use x="913.378906" xlink:href="#DejaVuSans-65"/>
     <use x="974.902344" xlink:href="#DejaVuSans-74"/>
     <use x="1014.111328" xlink:href="#DejaVuSans-77"/>
     <use x="1095.898438" xlink:href="#DejaVuSans-65"/>
     <use x="1157.421875" xlink:href="#DejaVuSans-65"/>
     <use x="1218.945312" xlink:href="#DejaVuSans-6e"/>
     <use x="1282.324219" xlink:href="#DejaVuSans-20"/>
     <use x="1314.111328" xlink:href="#DejaVuSans-63"/>
     <use x="1369.091797" xlink:href="#DejaVuSans-6f"/>
     <use x="1430.273438" xlink:href="#DejaVuSans-72"/>
     <use x="1471.386719" xlink:href="#DejaVuSans-70"/>
     <use x="1534.863281" xlink:href="#DejaVuSans-6f"/>
     <use x="1596.044922" xlink:href="#DejaVuSans-72"/>
     <use x="1637.158203" xlink:href="#DejaVuSans-61"/>
     <use x="1698.4375" xlink:href="#DejaVuSans-74"/>
     <use x="1737.646484" xlink:href="#DejaVuSans-65"/>
     <use x="1799.169922" xlink:href="#DejaVuSans-20"/>
     <use x="1830.957031" xlink:href="#DejaVuSans-6f"/>
     <use x="1892.138672" xlink:href="#DejaVuSans-77"/>
     <use x="1973.925781" xlink:href="#DejaVuSans-6e"/>
     <use x="2037.304688" xlink:href="#DejaVuSans-65"/>
     <use x="2098.828125" xlink:href="#DejaVuSans-72"/>
     <use x="2139.941406" xlink:href="#DejaVuSans-73"/>
     <use x="2192.041016" xlink:href="#DejaVuSans-68"/>
     <use x="2255.419922" xlink:href="#DejaVuSans-69"/>
     <use x="2283.203125" xlink:href="#DejaVuSans-70"/>
     <use x="2346.679688" xlink:href="#DejaVuSans-20"/>
     <use x="2378.466797" xlink:href="#DejaVuSans-69"/>
     <use x="2406.25" xlink:href="#DejaVuSans-6e"/>
     <use x="2469.628906" xlink:href="#DejaVuSans-20"/>
     <use x="2501.416016" xlink:href="#DejaVuSans-32"/>
     <use x="2565.039062" xlink:href="#DejaVuSans-30"/>
     <use x="2628.662109" xlink:href="#DejaVuSans-30"/>
     <use x="2692.285156" xlink:href="#DejaVuSans-34"/>
    </g>
    <!-- and change in ownership rate by 2024 -->
    <g transform="translate(79.467428 40.2)scale(0.16 -0.16)">
     <defs>
      <path d="M 2906 2969 
L 2906 4863 
L 3481 4863 
L 3481 0 
L 2906 0 
L 2906 525 
Q 2725 213 2448 61 
Q 2172 -91 1784 -91 
Q 1150 -91 751 415 
Q 353 922 353 1747 
Q 353 2572 751 3078 
Q 1150 3584 1784 3584 
Q 2172 3584 2448 3432 
Q 2725 3281 2906 2969 
z
M 947 1747 
Q 947 1113 1208 752 
Q 1469 391 1925 391 
Q 2381 391 2643 752 
Q 2906 1113 2906 1747 
Q 2906 2381 2643 2742 
Q 2381 3103 1925 3103 
Q 1469 3103 1208 2742 
Q 947 2381 947 1747 
z
" id="DejaVuSans-64" transform="scale(0.015625)"/>
      <path d="M 2906 1791 
Q 2906 2416 2648 2759 
Q 2391 3103 1925 3103 
Q 1463 3103 1205 2759 
Q 947 2416 947 1791 
Q 947 1169 1205 825 
Q 1463 481 1925 481 
Q 2391 481 2648 825 
Q 2906 1169 2906 1791 
z
M 3481 434 
Q 3481 -459 3084 -895 
Q 2688 -1331 1869 -1331 
Q 1566 -1331 1297 -1286 
Q 1028 -1241 775 -1147 
L 775 -588 
Q 1028 -725 1275 -790 
Q 1522 -856 1778 -856 
Q 2344 -856 2625 -561 
Q 2906 -266 2906 331 
L 2906 616 
Q 2728 306 2450 153 
Q 2172 0 1784 0 
Q 1141 0 747 490 
Q 353 981 353 1791 
Q 353 2603 747 3093 
Q 1141 3584 1784 3584 
Q 2172 3584 2450 3431 
Q 2728 3278 2906 2969 
L 2906 3500 
L 3481 3500 
L 3481 434 
z
" id="DejaVuSans-67" transform="scale(0.015625)"/>
      <path d="M 2059 -325 
Q 1816 -950 1584 -1140 
Q 1353 -1331 966 -1331 
L 506 -1331 
L 506 -850 
L 844 -850 
Q 1081 -850 1212 -737 
Q 1344 -625 1503 -206 
L 1606 56 
L 191 3500 
L 800 3500 
L 1894 763 
L 2988 3500 
L 3597 3500 
L 2059 -325 
z
" id="DejaVuSans-79" transform="scale(0.015625)"/>
     </defs>
     <use xlink:href="#DejaVuSans-61"/>
     <use x="61.279297" xlink:href="#DejaVuSans-6e"/>
     <use x="124.658203" xlink:href="#DejaVuSans-64"/>
     <use x="188.134766" xlink:href="#DejaVuSans-20"/>
     <use x="219.921875" xlink:href="#DejaVuSans-63"/>
     <use x="274.902344" xlink:href="#DejaVuSans-68"/>
     <use x="338.28125" xlink:href="#DejaVuSans-61"/>
     <use x="399.560547" xlink:href="#DejaVuSans-6e"/>
     <use x="462.939453" xlink:href="#DejaVuSans-67"/>
     <use x="526.416016" xlink:href="#DejaVuSans-65"/>
     <use x="587.939453" xlink:href="#DejaVuSans-20"/>
     <use x="619.726562" xlink:href="#DejaVuSans-69"/>
     <use x="647.509766" xlink:href="#DejaVuSans-6e"/>
     <use x="710.888672" xlink:href="#DejaVuSans-20"/>
     <use x="742.675781" xlink:href="#DejaVuSans-6f"/>
     <use x="803.857422" xlink:href="#DejaVuSans-77"/>
     <use x="885.644531" xlink:href="#DejaVuSans-6e"/>
     <use x="949.023438" xlink:href="#DejaVuSans-65"/>
     <use x="1010.546875" xlink:href="#DejaVuSans-72"/>
     <use x="1051.660156" xlink:href="#DejaVuSans-73"/>
     <use x="1103.759766" xlink:href="#DejaVuSans-68"/>
     <use x="1167.138672" xlink:href="#DejaVuSans-69"/>
     <use x="1194.921875" xlink:href="#DejaVuSans-70"/>
     <use x="1258.398438" xlink:href="#DejaVuSans-20"/>
     <use x="1290.185547" xlink:href="#DejaVuSans-72"/>
     <use x="1331.298828" xlink:href="#DejaVuSans-61"/>
     <use x="1392.578125" xlink:href="#DejaVuSans-74"/>
     <use x="1431.787109" xlink:href="#DejaVuSans-65"/>
     <use x="1493.310547" xlink:href="#DejaVuSans-20"/>
     <use x="1525.097656" xlink:href="#DejaVuSans-62"/>
     <use x="1588.574219" xlink:href="#DejaVuSans-79"/>
     <use x="1647.753906" xlink:href="#DejaVuSans-20"/>
     <use x="1679.541016" xlink:href="#DejaVuSans-32"/>
     <use x="1743.164062" xlink:href="#DejaVuSans-30"/>
     <use x="1806.787109" xlink:href="#DejaVuSans-32"/>
     <use x="1870.410156" xlink:href="#DejaVuSans-34"/>
    </g>
   </g>
  </g>
  <g id="axes_2">
   <g id="patch_7">
    <path d="M 473.304855 310.2 
L 803.034711 310.2 
L 803.034711 46.2 
L 473.304855 46.2 
z
" style="fill:#ffffff;"/>
   </g>
   <g id="PathCollection_4">
    <g clip-path="url(#p04489fbe7c)">
     <use style="fill:#1f77b4;fill-opacity:0;stroke:#1f77b4;stroke-opacity:0;" x="638.169783" xlink:href="#m340e30e9da" y="176.155576"/>
     <use style="fill:#1f77b4;fill-opacity:0;stroke:#1f77b4;stroke-opacity:0;" x="588.210714" xlink:href="#m340e30e9da" y="157.379511"/>
     <use style="fill:#1f77b4;fill-opacity:0;stroke:#1f77b4;stroke-opacity:0;" x="563.23118" xlink:href="#m340e30e9da" y="213.707707"/>
     <use style="fill:#1f77b4;fill-opacity:0;stroke:#1f77b4;stroke-opacity:0;" x="538.251645" xlink:href="#m340e30e9da" y="157.379511"/>
     <use style="fill:#1f77b4;fill-opacity:0;stroke:#1f77b4;stroke-opacity:0;" x="788.04699" xlink:href="#m340e30e9da" y="232.483772"/>
     <use style="fill:#1f77b4;fill-opacity:0;stroke:#1f77b4;stroke-opacity:0;" x="563.23118" xlink:href="#m340e30e9da" y="251.259837"/>
     <use style="fill:#1f77b4;fill-opacity:0;stroke:#1f77b4;stroke-opacity:0;" x="788.04699" xlink:href="#m340e30e9da" y="194.931641"/>
     <use style="fill:#1f77b4;fill-opacity:0;stroke:#1f77b4;stroke-opacity:0;" x="538.251645" xlink:href="#m340e30e9da" y="138.603446"/>
     <use style="fill:#1f77b4;fill-opacity:0;stroke:#1f77b4;stroke-opacity:0;" x="688.128852" xlink:href="#m340e30e9da" y="138.603446"/>
     <use style="fill:#1f77b4;fill-opacity:0;stroke:#1f77b4;stroke-opacity:0;" x="513.272111" xlink:href="#m340e30e9da" y="298.2"/>
     <use style="fill:#1f77b4;fill-opacity:0;stroke:#1f77b4;stroke-opacity:0;" x="513.272111" xlink:href="#m340e30e9da" y="251.259837"/>
     <use style="fill:#1f77b4;fill-opacity:0;stroke:#1f77b4;stroke-opacity:0;" x="688.128852" xlink:href="#m340e30e9da" y="157.379511"/>
     <use style="fill:#1f77b4;fill-opacity:0;stroke:#1f77b4;stroke-opacity:0;" x="513.272111" xlink:href="#m340e30e9da" y="279.423935"/>
     <use style="fill:#1f77b4;fill-opacity:0;stroke:#1f77b4;stroke-opacity:0;" x="663.149318" xlink:href="#m340e30e9da" y="194.931641"/>
     <use style="fill:#1f77b4;fill-opacity:0;stroke:#1f77b4;stroke-opacity:0;" x="513.272111" xlink:href="#m340e30e9da" y="279.423935"/>
     <use style="fill:#1f77b4;fill-opacity:0;stroke:#1f77b4;stroke-opacity:0;" x="638.169783" xlink:href="#m340e30e9da" y="223.095739"/>
     <use style="fill:#1f77b4;fill-opacity:0;stroke:#1f77b4;stroke-opacity:0;" x="563.23118" xlink:href="#m340e30e9da" y="223.095739"/>
     <use style="fill:#1f77b4;fill-opacity:0;stroke:#1f77b4;stroke-opacity:0;" x="613.190249" xlink:href="#m340e30e9da" y="91.663283"/>
     <use style="fill:#1f77b4;fill-opacity:0;stroke:#1f77b4;stroke-opacity:0;" x="613.190249" xlink:href="#m340e30e9da" y="213.707707"/>
     <use style="fill:#1f77b4;fill-opacity:0;stroke:#1f77b4;stroke-opacity:0;" x="588.210714" xlink:href="#m340e30e9da" y="176.155576"/>
     <use style="fill:#1f77b4;fill-opacity:0;stroke:#1f77b4;stroke-opacity:0;" x="488.292576" xlink:href="#m340e30e9da" y="279.423935"/>
    </g>
   </g>
   <g id="PolyCollection_2">
    <path clip-path="url(#p04489fbe7c)" d="M 488.292576 190.811518 
L 488.292576 275.907605 
L 491.320398 273.966413 
L 494.348221 272.572001 
L 497.376043 270.86859 
L 500.403866 269.394754 
L 503.431688 267.505477 
L 506.45951 265.92317 
L 509.487333 263.925107 
L 512.515155 262.376489 
L 515.542977 260.736642 
L 518.5708 259.311395 
L 521.598622 257.828085 
L 524.626444 255.930247 
L 527.654267 254.396686 
L 530.682089 252.684548 
L 533.709912 251.057367 
L 536.737734 249.521597 
L 539.765556 247.922912 
L 542.793379 246.319775 
L 545.821201 244.651109 
L 548.849023 243.178831 
L 551.876846 241.674446 
L 554.904668 240.476023 
L 557.93249 239.169476 
L 560.960313 238.038892 
L 563.988135 236.785976 
L 567.015958 235.334884 
L 570.04378 234.209587 
L 573.071602 233.449298 
L 576.099425 232.675211 
L 579.127247 231.565571 
L 582.155069 230.501745 
L 585.182892 229.607565 
L 588.210714 228.757351 
L 591.238536 227.667763 
L 594.266359 226.801279 
L 597.294181 225.938867 
L 600.322004 225.264869 
L 603.349826 224.489575 
L 606.377648 223.707672 
L 609.405471 222.91403 
L 612.433293 222.295839 
L 615.461115 221.467531 
L 618.488938 220.580393 
L 621.51676 219.917439 
L 624.544582 219.367138 
L 627.572405 218.892697 
L 630.600227 218.369654 
L 633.62805 217.495635 
L 636.655872 216.77395 
L 639.683694 216.197964 
L 642.711517 215.666883 
L 645.739339 215.128661 
L 648.767161 214.50747 
L 651.794984 213.7565 
L 654.822806 213.029173 
L 657.850628 212.645491 
L 660.878451 211.907458 
L 663.906273 211.271809 
L 666.934096 210.667666 
L 669.961918 210.111056 
L 672.98974 209.798574 
L 676.017563 209.458796 
L 679.045385 208.785661 
L 682.073207 208.307021 
L 685.10103 208.17996 
L 688.128852 208.02888 
L 691.156674 207.705924 
L 694.184497 207.41124 
L 697.212319 207.205535 
L 700.240142 207.005615 
L 703.267964 206.701048 
L 706.295786 206.374422 
L 709.323609 206.024143 
L 712.351431 205.759577 
L 715.379253 205.328825 
L 718.407076 204.979478 
L 721.434898 204.629574 
L 724.46272 204.27967 
L 727.490543 203.929765 
L 730.518365 203.594106 
L 733.546188 203.274257 
L 736.57401 203.148918 
L 739.601832 202.93801 
L 742.629655 202.420331 
L 745.657477 202.136984 
L 748.685299 201.851265 
L 751.713122 201.743784 
L 754.740944 201.443757 
L 757.768766 201.143185 
L 760.796589 201.040165 
L 763.824411 200.976899 
L 766.852234 200.902465 
L 769.880056 200.849277 
L 772.907878 200.796066 
L 775.935701 200.735041 
L 778.963523 200.674016 
L 781.991345 200.611827 
L 785.019168 200.54679 
L 788.04699 200.60609 
L 788.04699 58.2 
L 788.04699 58.2 
L 785.019168 60.375989 
L 781.991345 62.551978 
L 778.963523 64.727967 
L 775.935701 66.904457 
L 772.907878 69.086235 
L 769.880056 71.268013 
L 766.852234 73.31954 
L 763.824411 75.330829 
L 760.796589 77.342118 
L 757.768766 79.353407 
L 754.740944 81.364696 
L 751.713122 83.375985 
L 748.685299 85.387274 
L 745.657477 87.436625 
L 742.629655 89.648261 
L 739.601832 91.859897 
L 736.57401 94.071532 
L 733.546188 96.053057 
L 730.518365 98.003874 
L 727.490543 99.95469 
L 724.46272 101.905507 
L 721.434898 103.863584 
L 718.407076 106.153894 
L 715.379253 108.568418 
L 712.351431 110.785494 
L 709.323609 112.793882 
L 706.295786 114.804731 
L 703.267964 116.818382 
L 700.240142 118.832034 
L 697.212319 120.845685 
L 694.184497 122.859337 
L 691.156674 124.715296 
L 688.128852 126.731979 
L 685.10103 128.829627 
L 682.073207 130.589488 
L 679.045385 132.264716 
L 676.017563 134.081683 
L 672.98974 136.478751 
L 669.961918 138.877408 
L 666.934096 140.926264 
L 663.906273 142.936068 
L 660.878451 144.834885 
L 657.850628 146.719825 
L 654.822806 148.60628 
L 651.794984 150.5 
L 648.767161 152.39372 
L 645.739339 154.69949 
L 642.711517 156.677498 
L 639.683694 158.547639 
L 636.655872 160.414045 
L 633.62805 162.125499 
L 630.600227 164.079359 
L 627.572405 166.03282 
L 624.544582 168.050139 
L 621.51676 169.648687 
L 618.488938 171.209517 
L 615.461115 172.747756 
L 612.433293 174.036369 
L 609.405471 175.843626 
L 606.377648 177.072295 
L 603.349826 178.745108 
L 600.322004 180.172451 
L 597.294181 181.500842 
L 594.266359 182.590966 
L 591.238536 183.010003 
L 588.210714 183.08256 
L 585.182892 183.900663 
L 582.155069 184.551028 
L 579.127247 184.567437 
L 576.099425 184.65557 
L 573.071602 185.048175 
L 570.04378 186.300442 
L 567.015958 186.303347 
L 563.988135 186.306252 
L 560.960313 186.617136 
L 557.93249 186.84985 
L 554.904668 187.398881 
L 551.876846 187.517876 
L 548.849023 187.340789 
L 545.821201 187.465733 
L 542.793379 187.75653 
L 539.765556 188.053585 
L 536.737734 188.35214 
L 533.709912 188.76794 
L 530.682089 189.031371 
L 527.654267 189.511907 
L 524.626444 189.870773 
L 521.598622 190.078953 
L 518.5708 190.153641 
L 515.542977 190.222996 
L 512.515155 190.287456 
L 509.487333 190.351915 
L 506.45951 190.416375 
L 503.431688 190.335159 
L 500.403866 190.24207 
L 497.376043 190.596052 
L 494.348221 190.685387 
L 491.320398 190.748452 
L 488.292576 190.811518 
z
" style="fill-opacity:0.15;"/>
   </g>
   <g id="PathCollection_5">
    <g clip-path="url(#p04489fbe7c)">
     <use style="fill:#808080;stroke:#808080;" x="638.169783" xlink:href="#m59e15e21eb" y="176.155576"/>
     <use style="fill:#808080;stroke:#808080;" x="588.210714" xlink:href="#m59e15e21eb" y="157.379511"/>
     <use style="fill:#808080;stroke:#808080;" x="563.23118" xlink:href="#m59e15e21eb" y="213.707707"/>
     <use style="fill:#808080;stroke:#808080;" x="563.23118" xlink:href="#m59e15e21eb" y="251.259837"/>
     <use style="fill:#808080;stroke:#808080;" x="788.04699" xlink:href="#m59e15e21eb" y="194.931641"/>
     <use style="fill:#808080;stroke:#808080;" x="688.128852" xlink:href="#m59e15e21eb" y="138.603446"/>
     <use style="fill:#808080;stroke:#808080;" x="513.272111" xlink:href="#m59e15e21eb" y="298.2"/>
     <use style="fill:#808080;stroke:#808080;" x="513.272111" xlink:href="#m59e15e21eb" y="251.259837"/>
     <use style="fill:#808080;stroke:#808080;" x="688.128852" xlink:href="#m59e15e21eb" y="157.379511"/>
     <use style="fill:#808080;stroke:#808080;" x="513.272111" xlink:href="#m59e15e21eb" y="279.423935"/>
     <use style="fill:#808080;stroke:#808080;" x="663.149318" xlink:href="#m59e15e21eb" y="194.931641"/>
     <use style="fill:#808080;stroke:#808080;" x="513.272111" xlink:href="#m59e15e21eb" y="279.423935"/>
     <use style="fill:#808080;stroke:#808080;" x="638.169783" xlink:href="#m59e15e21eb" y="223.095739"/>
     <use style="fill:#808080;stroke:#808080;" x="563.23118" xlink:href="#m59e15e21eb" y="223.095739"/>
     <use style="fill:#808080;stroke:#808080;" x="613.190249" xlink:href="#m59e15e21eb" y="213.707707"/>
     <use style="fill:#808080;stroke:#808080;" x="588.210714" xlink:href="#m59e15e21eb" y="176.155576"/>
     <use style="fill:#808080;stroke:#808080;" x="488.292576" xlink:href="#m59e15e21eb" y="279.423935"/>
    </g>
   </g>
   <g id="PathCollection_6">
    <g clip-path="url(#p04489fbe7c)">
     <use style="fill:#ff0000;stroke:#ff0000;" x="613.190249" xlink:href="#m92a6f40eab" y="91.663283"/>
     <use style="fill:#ff0000;stroke:#ff0000;" x="788.04699" xlink:href="#m92a6f40eab" y="232.483772"/>
     <use style="fill:#ff0000;stroke:#ff0000;" x="538.251645" xlink:href="#m92a6f40eab" y="157.379511"/>
     <use style="fill:#ff0000;stroke:#ff0000;" x="538.251645" xlink:href="#m92a6f40eab" y="138.603446"/>
    </g>
   </g>
   <g id="matplotlib.axis_3">
    <g id="xtick_6">
     <g id="line2d_12">
      <g>
       <use style="stroke:#000000;stroke-width:0.8;" x="513.272111" xlink:href="#m5b2b226976" y="310.2"/>
      </g>
     </g>
     <g id="text_19">
      <!-- 0.02 -->
      <g transform="translate(502.139298 324.798438)scale(0.1 -0.1)">
       <use xlink:href="#DejaVuSans-30"/>
       <use x="63.623047" xlink:href="#DejaVuSans-2e"/>
       <use x="95.410156" xlink:href="#DejaVuSans-30"/>
       <use x="159.033203" xlink:href="#DejaVuSans-32"/>
      </g>
     </g>
    </g>
    <g id="xtick_7">
     <g id="line2d_13">
      <g>
       <use style="stroke:#000000;stroke-width:0.8;" x="563.23118" xlink:href="#m5b2b226976" y="310.2"/>
      </g>
     </g>
     <g id="text_20">
      <!-- 0.04 -->
      <g transform="translate(552.098367 324.798438)scale(0.1 -0.1)">
       <use xlink:href="#DejaVuSans-30"/>
       <use x="63.623047" xlink:href="#DejaVuSans-2e"/>
       <use x="95.410156" xlink:href="#DejaVuSans-30"/>
       <use x="159.033203" xlink:href="#DejaVuSans-34"/>
      </g>
     </g>
    </g>
    <g id="xtick_8">
     <g id="line2d_14">
      <g>
       <use style="stroke:#000000;stroke-width:0.8;" x="613.190249" xlink:href="#m5b2b226976" y="310.2"/>
      </g>
     </g>
     <g id="text_21">
      <!-- 0.06 -->
      <g transform="translate(602.057436 324.798438)scale(0.1 -0.1)">
       <defs>
        <path d="M 2113 2584 
Q 1688 2584 1439 2293 
Q 1191 2003 1191 1497 
Q 1191 994 1439 701 
Q 1688 409 2113 409 
Q 2538 409 2786 701 
Q 3034 994 3034 1497 
Q 3034 2003 2786 2293 
Q 2538 2584 2113 2584 
z
M 3366 4563 
L 3366 3988 
Q 3128 4100 2886 4159 
Q 2644 4219 2406 4219 
Q 1781 4219 1451 3797 
Q 1122 3375 1075 2522 
Q 1259 2794 1537 2939 
Q 1816 3084 2150 3084 
Q 2853 3084 3261 2657 
Q 3669 2231 3669 1497 
Q 3669 778 3244 343 
Q 2819 -91 2113 -91 
Q 1303 -91 875 529 
Q 447 1150 447 2328 
Q 447 3434 972 4092 
Q 1497 4750 2381 4750 
Q 2619 4750 2861 4703 
Q 3103 4656 3366 4563 
z
" id="DejaVuSans-36" transform="scale(0.015625)"/>
       </defs>
       <use xlink:href="#DejaVuSans-30"/>
       <use x="63.623047" xlink:href="#DejaVuSans-2e"/>
       <use x="95.410156" xlink:href="#DejaVuSans-30"/>
       <use x="159.033203" xlink:href="#DejaVuSans-36"/>
      </g>
     </g>
    </g>
    <g id="xtick_9">
     <g id="line2d_15">
      <g>
       <use style="stroke:#000000;stroke-width:0.8;" x="663.149318" xlink:href="#m5b2b226976" y="310.2"/>
      </g>
     </g>
     <g id="text_22">
      <!-- 0.08 -->
      <g transform="translate(652.016505 324.798438)scale(0.1 -0.1)">
       <defs>
        <path d="M 2034 2216 
Q 1584 2216 1326 1975 
Q 1069 1734 1069 1313 
Q 1069 891 1326 650 
Q 1584 409 2034 409 
Q 2484 409 2743 651 
Q 3003 894 3003 1313 
Q 3003 1734 2745 1975 
Q 2488 2216 2034 2216 
z
M 1403 2484 
Q 997 2584 770 2862 
Q 544 3141 544 3541 
Q 544 4100 942 4425 
Q 1341 4750 2034 4750 
Q 2731 4750 3128 4425 
Q 3525 4100 3525 3541 
Q 3525 3141 3298 2862 
Q 3072 2584 2669 2484 
Q 3125 2378 3379 2068 
Q 3634 1759 3634 1313 
Q 3634 634 3220 271 
Q 2806 -91 2034 -91 
Q 1263 -91 848 271 
Q 434 634 434 1313 
Q 434 1759 690 2068 
Q 947 2378 1403 2484 
z
M 1172 3481 
Q 1172 3119 1398 2916 
Q 1625 2713 2034 2713 
Q 2441 2713 2670 2916 
Q 2900 3119 2900 3481 
Q 2900 3844 2670 4047 
Q 2441 4250 2034 4250 
Q 1625 4250 1398 4047 
Q 1172 3844 1172 3481 
z
" id="DejaVuSans-38" transform="scale(0.015625)"/>
       </defs>
       <use xlink:href="#DejaVuSans-30"/>
       <use x="63.623047" xlink:href="#DejaVuSans-2e"/>
       <use x="95.410156" xlink:href="#DejaVuSans-30"/>
       <use x="159.033203" xlink:href="#DejaVuSans-38"/>
      </g>
     </g>
    </g>
    <g id="xtick_10">
     <g id="line2d_16">
      <g>
       <use style="stroke:#000000;stroke-width:0.8;" x="713.108387" xlink:href="#m5b2b226976" y="310.2"/>
      </g>
     </g>
     <g id="text_23">
      <!-- 0.10 -->
      <g transform="translate(701.975574 324.798438)scale(0.1 -0.1)">
       <use xlink:href="#DejaVuSans-30"/>
       <use x="63.623047" xlink:href="#DejaVuSans-2e"/>
       <use x="95.410156" xlink:href="#DejaVuSans-31"/>
       <use x="159.033203" xlink:href="#DejaVuSans-30"/>
      </g>
     </g>
    </g>
    <g id="xtick_11">
     <g id="line2d_17">
      <g>
       <use style="stroke:#000000;stroke-width:0.8;" x="763.067456" xlink:href="#m5b2b226976" y="310.2"/>
      </g>
     </g>
     <g id="text_24">
      <!-- 0.12 -->
      <g transform="translate(751.934643 324.798438)scale(0.1 -0.1)">
       <use xlink:href="#DejaVuSans-30"/>
       <use x="63.623047" xlink:href="#DejaVuSans-2e"/>
       <use x="95.410156" xlink:href="#DejaVuSans-31"/>
       <use x="159.033203" xlink:href="#DejaVuSans-32"/>
      </g>
     </g>
    </g>
    <g id="text_25">
     <!-- Corporate ownership rate in 2004 -->
     <g transform="translate(519.761502 341.515938)scale(0.14 -0.14)">
      <use xlink:href="#DejaVuSans-43"/>
      <use x="69.824219" xlink:href="#DejaVuSans-6f"/>
      <use x="131.005859" xlink:href="#DejaVuSans-72"/>
      <use x="172.119141" xlink:href="#DejaVuSans-70"/>
      <use x="235.595703" xlink:href="#DejaVuSans-6f"/>
      <use x="296.777344" xlink:href="#DejaVuSans-72"/>
      <use x="337.890625" xlink:href="#DejaVuSans-61"/>
      <use x="399.169922" xlink:href="#DejaVuSans-74"/>
      <use x="438.378906" xlink:href="#DejaVuSans-65"/>
      <use x="499.902344" xlink:href="#DejaVuSans-20"/>
      <use x="531.689453" xlink:href="#DejaVuSans-6f"/>
      <use x="592.871094" xlink:href="#DejaVuSans-77"/>
      <use x="674.658203" xlink:href="#DejaVuSans-6e"/>
      <use x="738.037109" xlink:href="#DejaVuSans-65"/>
      <use x="799.560547" xlink:href="#DejaVuSans-72"/>
      <use x="840.673828" xlink:href="#DejaVuSans-73"/>
      <use x="892.773438" xlink:href="#DejaVuSans-68"/>
      <use x="956.152344" xlink:href="#DejaVuSans-69"/>
      <use x="983.935547" xlink:href="#DejaVuSans-70"/>
      <use x="1047.412109" xlink:href="#DejaVuSans-20"/>
      <use x="1079.199219" xlink:href="#DejaVuSans-72"/>
      <use x="1120.3125" xlink:href="#DejaVuSans-61"/>
      <use x="1181.591797" xlink:href="#DejaVuSans-74"/>
      <use x="1220.800781" xlink:href="#DejaVuSans-65"/>
      <use x="1282.324219" xlink:href="#DejaVuSans-20"/>
      <use x="1314.111328" xlink:href="#DejaVuSans-69"/>
      <use x="1341.894531" xlink:href="#DejaVuSans-6e"/>
      <use x="1405.273438" xlink:href="#DejaVuSans-20"/>
      <use x="1437.060547" xlink:href="#DejaVuSans-32"/>
      <use x="1500.683594" xlink:href="#DejaVuSans-30"/>
      <use x="1564.306641" xlink:href="#DejaVuSans-30"/>
      <use x="1627.929688" xlink:href="#DejaVuSans-34"/>
     </g>
    </g>
   </g>
   <g id="matplotlib.axis_4">
    <g id="ytick_6">
     <g id="line2d_18">
      <g>
       <use style="stroke:#000000;stroke-width:0.8;" x="473.304855" xlink:href="#m9b005562ad" y="298.2"/>
      </g>
     </g>
     <g id="text_26">
      <!-- 0.10 -->
      <g transform="translate(444.03923 301.999219)scale(0.1 -0.1)">
       <use xlink:href="#DejaVuSans-30"/>
       <use x="63.623047" xlink:href="#DejaVuSans-2e"/>
       <use x="95.410156" xlink:href="#DejaVuSans-31"/>
       <use x="159.033203" xlink:href="#DejaVuSans-30"/>
      </g>
     </g>
    </g>
    <g id="ytick_7">
     <g id="line2d_19">
      <g>
       <use style="stroke:#000000;stroke-width:0.8;" x="473.304855" xlink:href="#m9b005562ad" y="251.259837"/>
      </g>
     </g>
     <g id="text_27">
      <!-- 0.15 -->
      <g transform="translate(444.03923 255.059056)scale(0.1 -0.1)">
       <use xlink:href="#DejaVuSans-30"/>
       <use x="63.623047" xlink:href="#DejaVuSans-2e"/>
       <use x="95.410156" xlink:href="#DejaVuSans-31"/>
       <use x="159.033203" xlink:href="#DejaVuSans-35"/>
      </g>
     </g>
    </g>
    <g id="ytick_8">
     <g id="line2d_20">
      <g>
       <use style="stroke:#000000;stroke-width:0.8;" x="473.304855" xlink:href="#m9b005562ad" y="204.319674"/>
      </g>
     </g>
     <g id="text_28">
      <!-- 0.20 -->
      <g transform="translate(444.03923 208.118893)scale(0.1 -0.1)">
       <use xlink:href="#DejaVuSans-30"/>
       <use x="63.623047" xlink:href="#DejaVuSans-2e"/>
       <use x="95.410156" xlink:href="#DejaVuSans-32"/>
       <use x="159.033203" xlink:href="#DejaVuSans-30"/>
      </g>
     </g>
    </g>
    <g id="ytick_9">
     <g id="line2d_21">
      <g>
       <use style="stroke:#000000;stroke-width:0.8;" x="473.304855" xlink:href="#m9b005562ad" y="157.379511"/>
      </g>
     </g>
     <g id="text_29">
      <!-- 0.25 -->
      <g transform="translate(444.03923 161.17873)scale(0.1 -0.1)">
       <use xlink:href="#DejaVuSans-30"/>
       <use x="63.623047" xlink:href="#DejaVuSans-2e"/>
       <use x="95.410156" xlink:href="#DejaVuSans-32"/>
       <use x="159.033203" xlink:href="#DejaVuSans-35"/>
      </g>
     </g>
    </g>
    <g id="ytick_10">
     <g id="line2d_22">
      <g>
       <use style="stroke:#000000;stroke-width:0.8;" x="473.304855" xlink:href="#m9b005562ad" y="110.439348"/>
      </g>
     </g>
     <g id="text_30">
      <!-- 0.30 -->
      <g transform="translate(444.03923 114.238567)scale(0.1 -0.1)">
       <defs>
        <path d="M 2597 2516 
Q 3050 2419 3304 2112 
Q 3559 1806 3559 1356 
Q 3559 666 3084 287 
Q 2609 -91 1734 -91 
Q 1441 -91 1130 -33 
Q 819 25 488 141 
L 488 750 
Q 750 597 1062 519 
Q 1375 441 1716 441 
Q 2309 441 2620 675 
Q 2931 909 2931 1356 
Q 2931 1769 2642 2001 
Q 2353 2234 1838 2234 
L 1294 2234 
L 1294 2753 
L 1863 2753 
Q 2328 2753 2575 2939 
Q 2822 3125 2822 3475 
Q 2822 3834 2567 4026 
Q 2313 4219 1838 4219 
Q 1578 4219 1281 4162 
Q 984 4106 628 3988 
L 628 4550 
Q 988 4650 1302 4700 
Q 1616 4750 1894 4750 
Q 2613 4750 3031 4423 
Q 3450 4097 3450 3541 
Q 3450 3153 3228 2886 
Q 3006 2619 2597 2516 
z
" id="DejaVuSans-33" transform="scale(0.015625)"/>
       </defs>
       <use xlink:href="#DejaVuSans-30"/>
       <use x="63.623047" xlink:href="#DejaVuSans-2e"/>
       <use x="95.410156" xlink:href="#DejaVuSans-33"/>
       <use x="159.033203" xlink:href="#DejaVuSans-30"/>
      </g>
     </g>
    </g>
    <g id="ytick_11">
     <g id="line2d_23">
      <g>
       <use style="stroke:#000000;stroke-width:0.8;" x="473.304855" xlink:href="#m9b005562ad" y="63.499185"/>
      </g>
     </g>
     <g id="text_31">
      <!-- 0.35 -->
      <g transform="translate(444.03923 67.298404)scale(0.1 -0.1)">
       <use xlink:href="#DejaVuSans-30"/>
       <use x="63.623047" xlink:href="#DejaVuSans-2e"/>
       <use x="95.410156" xlink:href="#DejaVuSans-33"/>
       <use x="159.033203" xlink:href="#DejaVuSans-35"/>
      </g>
     </g>
    </g>
    <g id="text_32">
     <!-- Δcorporate ownership rate -->
     <g transform="translate(421.45073 271.712344)rotate(-90)scale(0.14 -0.14)">
      <use xlink:href="#DejaVuSans-394"/>
      <use x="68.408203" xlink:href="#DejaVuSans-63"/>
      <use x="123.388672" xlink:href="#DejaVuSans-6f"/>
      <use x="184.570312" xlink:href="#DejaVuSans-72"/>
      <use x="225.683594" xlink:href="#DejaVuSans-70"/>
      <use x="289.160156" xlink:href="#DejaVuSans-6f"/>
      <use x="350.341797" xlink:href="#DejaVuSans-72"/>
      <use x="391.455078" xlink:href="#DejaVuSans-61"/>
      <use x="452.734375" xlink:href="#DejaVuSans-74"/>
      <use x="491.943359" xlink:href="#DejaVuSans-65"/>
      <use x="553.466797" xlink:href="#DejaVuSans-20"/>
      <use x="585.253906" xlink:href="#DejaVuSans-6f"/>
      <use x="646.435547" xlink:href="#DejaVuSans-77"/>
      <use x="728.222656" xlink:href="#DejaVuSans-6e"/>
      <use x="791.601562" xlink:href="#DejaVuSans-65"/>
      <use x="853.125" xlink:href="#DejaVuSans-72"/>
      <use x="894.238281" xlink:href="#DejaVuSans-73"/>
      <use x="946.337891" xlink:href="#DejaVuSans-68"/>
      <use x="1009.716797" xlink:href="#DejaVuSans-69"/>
      <use x="1037.5" xlink:href="#DejaVuSans-70"/>
      <use x="1100.976562" xlink:href="#DejaVuSans-20"/>
      <use x="1132.763672" xlink:href="#DejaVuSans-72"/>
      <use x="1173.876953" xlink:href="#DejaVuSans-61"/>
      <use x="1235.15625" xlink:href="#DejaVuSans-74"/>
      <use x="1274.365234" xlink:href="#DejaVuSans-65"/>
     </g>
     <!-- (2004-2024) -->
     <g transform="translate(437.127668 221.817656)rotate(-90)scale(0.14 -0.14)">
      <use xlink:href="#DejaVuSans-28"/>
      <use x="39.013672" xlink:href="#DejaVuSans-32"/>
      <use x="102.636719" xlink:href="#DejaVuSans-30"/>
      <use x="166.259766" xlink:href="#DejaVuSans-30"/>
      <use x="229.882812" xlink:href="#DejaVuSans-34"/>
      <use x="293.505859" xlink:href="#DejaVuSans-2d"/>
      <use x="329.589844" xlink:href="#DejaVuSans-32"/>
      <use x="393.212891" xlink:href="#DejaVuSans-30"/>
      <use x="456.835938" xlink:href="#DejaVuSans-32"/>
      <use x="520.458984" xlink:href="#DejaVuSans-34"/>
      <use x="584.082031" xlink:href="#DejaVuSans-29"/>
     </g>
    </g>
   </g>
   <g id="line2d_24">
    <path clip-path="url(#p04489fbe7c)" d="M 488.292576 234.255099 
L 491.320398 233.492891 
L 494.348221 232.730684 
L 497.376043 231.968477 
L 500.403866 231.206269 
L 503.431688 230.444062 
L 506.45951 229.681855 
L 509.487333 228.919647 
L 512.515155 228.15744 
L 515.542977 227.395233 
L 518.5708 226.633025 
L 521.598622 225.870818 
L 524.626444 225.108611 
L 527.654267 224.346403 
L 530.682089 223.584196 
L 533.709912 222.821989 
L 536.737734 222.059781 
L 539.765556 221.297574 
L 542.793379 220.535367 
L 545.821201 219.773159 
L 548.849023 219.010952 
L 551.876846 218.248745 
L 554.904668 217.486537 
L 557.93249 216.72433 
L 560.960313 215.962123 
L 563.988135 215.199915 
L 567.015958 214.437708 
L 570.04378 213.675501 
L 573.071602 212.913293 
L 576.099425 212.151086 
L 579.127247 211.388879 
L 582.155069 210.626671 
L 585.182892 209.864464 
L 588.210714 209.102257 
L 591.238536 208.340049 
L 594.266359 207.577842 
L 597.294181 206.815635 
L 600.322004 206.053427 
L 603.349826 205.29122 
L 606.377648 204.529013 
L 609.405471 203.766805 
L 612.433293 203.004598 
L 615.461115 202.242391 
L 618.488938 201.480183 
L 621.51676 200.717976 
L 624.544582 199.955769 
L 627.572405 199.193561 
L 630.600227 198.431354 
L 633.62805 197.669147 
L 636.655872 196.906939 
L 639.683694 196.144732 
L 642.711517 195.382525 
L 645.739339 194.620317 
L 648.767161 193.85811 
L 651.794984 193.095902 
L 654.822806 192.333695 
L 657.850628 191.571488 
L 660.878451 190.80928 
L 663.906273 190.047073 
L 666.934096 189.284866 
L 669.961918 188.522658 
L 672.98974 187.760451 
L 676.017563 186.998244 
L 679.045385 186.236036 
L 682.073207 185.473829 
L 685.10103 184.711622 
L 688.128852 183.949414 
L 691.156674 183.187207 
L 694.184497 182.425 
L 697.212319 181.662792 
L 700.240142 180.900585 
L 703.267964 180.138378 
L 706.295786 179.37617 
L 709.323609 178.613963 
L 712.351431 177.851756 
L 715.379253 177.089548 
L 718.407076 176.327341 
L 721.434898 175.565134 
L 724.46272 174.802926 
L 727.490543 174.040719 
L 730.518365 173.278512 
L 733.546188 172.516304 
L 736.57401 171.754097 
L 739.601832 170.99189 
L 742.629655 170.229682 
L 745.657477 169.467475 
L 748.685299 168.705268 
L 751.713122 167.94306 
L 754.740944 167.180853 
L 757.768766 166.418646 
L 760.796589 165.656438 
L 763.824411 164.894231 
L 766.852234 164.132024 
L 769.880056 163.369816 
L 772.907878 162.607609 
L 775.935701 161.845402 
L 778.963523 161.083194 
L 781.991345 160.320987 
L 785.019168 159.55878 
L 788.04699 158.796572 
" style="fill:none;stroke:#000000;stroke-dasharray:8.325,3.6;stroke-dashoffset:0;stroke-width:2.25;"/>
   </g>
   <g id="patch_8">
    <path d="M 473.304855 310.2 
L 473.304855 46.2 
" style="fill:none;stroke:#000000;stroke-linecap:square;stroke-linejoin:miter;stroke-width:0.8;"/>
   </g>
   <g id="patch_9">
    <path d="M 803.034711 310.2 
L 803.034711 46.2 
" style="fill:none;stroke:#000000;stroke-linecap:square;stroke-linejoin:miter;stroke-width:0.8;"/>
   </g>
   <g id="patch_10">
    <path d="M 473.304855 310.2 
L 803.034711 310.2 
" style="fill:none;stroke:#000000;stroke-linecap:square;stroke-linejoin:miter;stroke-width:0.8;"/>
   </g>
   <g id="patch_11">
    <path d="M 473.304855 46.2 
L 803.034711 46.2 
" style="fill:none;stroke:#000000;stroke-linecap:square;stroke-linejoin:miter;stroke-width:0.8;"/>
   </g>
   <g id="text_33">
    <!-- South Boston Waterfront -->
    <g transform="translate(613.190249 91.663283)scale(0.12 -0.12)">
     <use xlink:href="#DejaVuSans-53"/>
     <use x="63.476562" xlink:href="#DejaVuSans-6f"/>
     <use x="124.658203" xlink:href="#DejaVuSans-75"/>
     <use x="188.037109" xlink:href="#DejaVuSans-74"/>
     <use x="227.246094" xlink:href="#DejaVuSans-68"/>
     <use x="290.625" xlink:href="#DejaVuSans-20"/>
     <use x="322.412109" xlink:href="#DejaVuSans-42"/>
     <use x="391.015625" xlink:href="#DejaVuSans-6f"/>
     <use x="452.197266" xlink:href="#DejaVuSans-73"/>
     <use x="504.296875" xlink:href="#DejaVuSans-74"/>
     <use x="543.505859" xlink:href="#DejaVuSans-6f"/>
     <use x="604.6875" xlink:href="#DejaVuSans-6e"/>
     <use x="668.066406" xlink:href="#DejaVuSans-20"/>
     <use x="699.853516" xlink:href="#DejaVuSans-57"/>
     <use x="792.355469" xlink:href="#DejaVuSans-61"/>
     <use x="853.634766" xlink:href="#DejaVuSans-74"/>
     <use x="892.84375" xlink:href="#DejaVuSans-65"/>
     <use x="954.367188" xlink:href="#DejaVuSans-72"/>
     <use x="995.480469" xlink:href="#DejaVuSans-66"/>
     <use x="1030.685547" xlink:href="#DejaVuSans-72"/>
     <use x="1069.548828" xlink:href="#DejaVuSans-6f"/>
     <use x="1130.730469" xlink:href="#DejaVuSans-6e"/>
     <use x="1194.109375" xlink:href="#DejaVuSans-74"/>
    </g>
   </g>
   <g id="text_34">
    <!-- Chinatown -->
    <g transform="translate(788.04699 232.483772)scale(0.12 -0.12)">
     <use xlink:href="#DejaVuSans-43"/>
     <use x="69.824219" xlink:href="#DejaVuSans-68"/>
     <use x="133.203125" xlink:href="#DejaVuSans-69"/>
     <use x="160.986328" xlink:href="#DejaVuSans-6e"/>
     <use x="224.365234" xlink:href="#DejaVuSans-61"/>
     <use x="285.644531" xlink:href="#DejaVuSans-74"/>
     <use x="324.853516" xlink:href="#DejaVuSans-6f"/>
     <use x="386.035156" xlink:href="#DejaVuSans-77"/>
     <use x="467.822266" xlink:href="#DejaVuSans-6e"/>
    </g>
   </g>
   <g id="text_35">
    <!-- Charlestown -->
    <g transform="translate(538.251645 157.379511)scale(0.12 -0.12)">
     <use xlink:href="#DejaVuSans-43"/>
     <use x="69.824219" xlink:href="#DejaVuSans-68"/>
     <use x="133.203125" xlink:href="#DejaVuSans-61"/>
     <use x="194.482422" xlink:href="#DejaVuSans-72"/>
     <use x="235.595703" xlink:href="#DejaVuSans-6c"/>
     <use x="263.378906" xlink:href="#DejaVuSans-65"/>
     <use x="324.902344" xlink:href="#DejaVuSans-73"/>
     <use x="377.001953" xlink:href="#DejaVuSans-74"/>
     <use x="416.210938" xlink:href="#DejaVuSans-6f"/>
     <use x="477.392578" xlink:href="#DejaVuSans-77"/>
     <use x="559.179688" xlink:href="#DejaVuSans-6e"/>
    </g>
   </g>
   <g id="text_36">
    <!-- East Boston -->
    <g transform="translate(538.251645 138.603446)scale(0.12 -0.12)">
     <use xlink:href="#DejaVuSans-45"/>
     <use x="63.183594" xlink:href="#DejaVuSans-61"/>
     <use x="124.462891" xlink:href="#DejaVuSans-73"/>
     <use x="176.5625" xlink:href="#DejaVuSans-74"/>
     <use x="215.771484" xlink:href="#DejaVuSans-20"/>
     <use x="247.558594" xlink:href="#DejaVuSans-42"/>
     <use x="316.162109" xlink:href="#DejaVuSans-6f"/>
     <use x="377.34375" xlink:href="#DejaVuSans-73"/>
     <use x="429.443359" xlink:href="#DejaVuSans-74"/>
     <use x="468.652344" xlink:href="#DejaVuSans-6f"/>
     <use x="529.833984" xlink:href="#DejaVuSans-6e"/>
    </g>
   </g>
   <g id="text_37">
    <!-- Corporate ownership rate in 2004 -->
    <g transform="translate(502.846033 22.2835)scale(0.16 -0.16)">
     <use xlink:href="#DejaVuSans-43"/>
     <use x="69.824219" xlink:href="#DejaVuSans-6f"/>
     <use x="131.005859" xlink:href="#DejaVuSans-72"/>
     <use x="172.119141" xlink:href="#DejaVuSans-70"/>
     <use x="235.595703" xlink:href="#DejaVuSans-6f"/>
     <use x="296.777344" xlink:href="#DejaVuSans-72"/>
     <use x="337.890625" xlink:href="#DejaVuSans-61"/>
     <use x="399.169922" xlink:href="#DejaVuSans-74"/>
     <use x="438.378906" xlink:href="#DejaVuSans-65"/>
     <use x="499.902344" xlink:href="#DejaVuSans-20"/>
     <use x="531.689453" xlink:href="#DejaVuSans-6f"/>
     <use x="592.871094" xlink:href="#DejaVuSans-77"/>
     <use x="674.658203" xlink:href="#DejaVuSans-6e"/>
     <use x="738.037109" xlink:href="#DejaVuSans-65"/>
     <use x="799.560547" xlink:href="#DejaVuSans-72"/>
     <use x="840.673828" xlink:href="#DejaVuSans-73"/>
     <use x="892.773438" xlink:href="#DejaVuSans-68"/>
     <use x="956.152344" xlink:href="#DejaVuSans-69"/>
     <use x="983.935547" xlink:href="#DejaVuSans-70"/>
     <use x="1047.412109" xlink:href="#DejaVuSans-20"/>
     <use x="1079.199219" xlink:href="#DejaVuSans-72"/>
     <use x="1120.3125" xlink:href="#DejaVuSans-61"/>
     <use x="1181.591797" xlink:href="#DejaVuSans-74"/>
     <use x="1220.800781" xlink:href="#DejaVuSans-65"/>
     <use x="1282.324219" xlink:href="#DejaVuSans-20"/>
     <use x="1314.111328" xlink:href="#DejaVuSans-69"/>
     <use x="1341.894531" xlink:href="#DejaVuSans-6e"/>
     <use x="1405.273438" xlink:href="#DejaVuSans-20"/>
     <use x="1437.060547" xlink:href="#DejaVuSans-32"/>
     <use x="1500.683594" xlink:href="#DejaVuSans-30"/>
     <use x="1564.306641" xlink:href="#DejaVuSans-30"/>
     <use x="1627.929688" xlink:href="#DejaVuSans-34"/>
    </g>
    <!-- and change in ownership rate by 2024 -->
    <g transform="translate(483.447283 40.2)scale(0.16 -0.16)">
     <use xlink:href="#DejaVuSans-61"/>
     <use x="61.279297" xlink:href="#DejaVuSans-6e"/>
     <use x="124.658203" xlink:href="#DejaVuSans-64"/>
     <use x="188.134766" xlink:href="#DejaVuSans-20"/>
     <use x="219.921875" xlink:href="#DejaVuSans-63"/>
     <use x="274.902344" xlink:href="#DejaVuSans-68"/>
     <use x="338.28125" xlink:href="#DejaVuSans-61"/>
     <use x="399.560547" xlink:href="#DejaVuSans-6e"/>
     <use x="462.939453" xlink:href="#DejaVuSans-67"/>
     <use x="526.416016" xlink:href="#DejaVuSans-65"/>
     <use x="587.939453" xlink:href="#DejaVuSans-20"/>
     <use x="619.726562" xlink:href="#DejaVuSans-69"/>
     <use x="647.509766" xlink:href="#DejaVuSans-6e"/>
     <use x="710.888672" xlink:href="#DejaVuSans-20"/>
     <use x="742.675781" xlink:href="#DejaVuSans-6f"/>
     <use x="803.857422" xlink:href="#DejaVuSans-77"/>
     <use x="885.644531" xlink:href="#DejaVuSans-6e"/>
     <use x="949.023438" xlink:href="#DejaVuSans-65"/>
     <use x="1010.546875" xlink:href="#DejaVuSans-72"/>
     <use x="1051.660156" xlink:href="#DejaVuSans-73"/>
     <use x="1103.759766" xlink:href="#DejaVuSans-68"/>
     <use x="1167.138672" xlink:href="#DejaVuSans-69"/>
     <use x="1194.921875" xlink:href="#DejaVuSans-70"/>
     <use x="1258.398438" xlink:href="#DejaVuSans-20"/>
     <use x="1290.185547" xlink:href="#DejaVuSans-72"/>
     <use x="1331.298828" xlink:href="#DejaVuSans-61"/>
     <use x="1392.578125" xlink:href="#DejaVuSans-74"/>
     <use x="1431.787109" xlink:href="#DejaVuSans-65"/>
     <use x="1493.310547" xlink:href="#DejaVuSans-20"/>
     <use x="1525.097656" xlink:href="#DejaVuSans-62"/>
     <use x="1588.574219" xlink:href="#DejaVuSans-79"/>
     <use x="1647.753906" xlink:href="#DejaVuSans-20"/>
     <use x="1679.541016" xlink:href="#DejaVuSans-32"/>
     <use x="1743.164062" xlink:href="#DejaVuSans-30"/>
     <use x="1806.787109" xlink:href="#DejaVuSans-32"/>
     <use x="1870.410156" xlink:href="#DejaVuSans-34"/>
    </g>
   </g>
  </g>
 </g>
 <defs>
  <clipPath id="pebd9d760da">
   <rect height="264" width="329.729855" x="69.325" y="46.2"/>
  </clipPath>
  <clipPath id="p04489fbe7c">
   <rect height="264" width="329.729855" x="473.304855" y="46.2"/>
  </clipPath>
 </defs>
</svg>
